<svg width="24" height="24" viewBox="0 0 24 24" fill="none" xmlns="http://www.w3.org/2000/svg">
<path d="M14.9332 1.73389H7.1112C6.5749 1.73389 6.13342 2.17536 6.13342 2.71156V6.86703L14.9332 12.0002L19.3331 13.8566L23.7329 12.0002V6.86703L14.9332 1.73389Z" fill="#21A366"/>
<path fill-rule="evenodd" clip-rule="evenodd" d="M6.13342 6.8667H14.9332V11.9998H6.13342V6.8667Z" fill="#107C41"/>
<path d="M22.7552 1.73389H14.9332V6.86703H23.7329V2.71156C23.7329 2.17536 23.2914 1.73389 22.7552 1.73389Z" fill="#33C481"/>
<path d="M14.9332 12H6.13342V21.2886C6.13342 21.8248 6.5749 22.2663 7.1112 22.2663H22.7552C23.2914 22.2663 23.7329 21.8248 23.7329 21.2886V17.1331L14.9332 12Z" fill="#185C37"/>
<path fill-rule="evenodd" clip-rule="evenodd" d="M14.9332 12H23.7329V17.1331H14.9332V12Z" fill="#107C41"/>
<path d="M12.4889 5.3999H6.13354V19.3327H12.4889C13.0246 19.3312 13.4651 18.8907 13.4666 18.3551V6.37757C13.4651 5.84191 13.0246 5.4014 12.4889 5.3999Z" fill="black" fill-opacity="0.094118"/>
<path d="M11.7556 6.13379H6.13354V20.0666H11.7556C12.2913 20.0651 12.7318 19.6246 12.7333 19.0889V7.11146C12.7318 6.5758 12.2913 6.13528 11.7556 6.13379Z" fill="black" fill-opacity="0.2"/>
<path d="M11.7556 6.13379H6.13354V18.6H11.7556C12.2913 18.5985 12.7318 18.158 12.7333 17.6223V7.11146C12.7318 6.5758 12.2913 6.13528 11.7556 6.13379Z" fill="black" fill-opacity="0.2"/>
<path d="M11.0223 6.13379H6.13354V18.6H11.0223C11.558 18.5985 11.9985 18.158 12 17.6223V7.11146C11.9985 6.5758 11.558 6.13528 11.0223 6.13379Z" fill="black" fill-opacity="0.2"/>
<path d="M1.24476 6.13379H11.0223C11.5585 6.13379 12 6.57527 12 7.11146V16.889C12 17.4252 11.5586 17.8667 11.0223 17.8667H1.24476C0.708567 17.8667 0.26709 17.4252 0.26709 16.889V7.11146C0.26709 6.57527 0.708567 6.13379 1.24476 6.13379Z" fill="#107C41"/>
<path d="M2.85815 15.6666L5.23097 11.9898L3.05761 8.3335H4.80656L5.99297 10.6704C6.10198 10.8921 6.17697 11.0576 6.21793 11.1666H6.23329C6.31158 10.9894 6.39349 10.8171 6.47882 10.65L7.74694 8.3335H9.35275L7.12307 11.9693L9.40896 15.6666H7.70086L6.33035 13.0995C6.26582 12.9904 6.2111 12.8756 6.16673 12.7569H6.14635C6.10625 12.8733 6.05313 12.9847 5.98775 13.0892L4.57639 15.6666H2.85815Z" fill="white"/>
</svg>
