<svg width="24" height="24" viewBox="0 0 24 24" fill="none" xmlns="http://www.w3.org/2000/svg">
<path d="M0.875641 11.0485C1.40076 11.0568 1.91326 10.8873 2.32999 10.5677C2.71535 10.245 2.97894 9.80034 3.07712 9.30736C3.23146 8.40513 3.29798 7.49007 3.27574 6.575C3.28316 5.28492 3.30637 4.43508 3.34535 4.02548C3.38664 3.48591 3.51776 2.95704 3.7333 2.46068C3.89754 2.09979 4.13635 1.77778 4.43402 1.51586C4.74791 1.26216 5.11248 1.07861 5.50321 0.977554C5.97486 0.884117 6.45568 0.84519 6.93622 0.86154H7.58589V2.68064H7.22672C6.6572 2.60818 6.08217 2.76437 5.62758 3.115C5.29106 3.70307 5.15276 4.38384 5.23313 5.05661C5.26417 6.33662 5.22171 7.61735 5.10598 8.8925C5.02171 9.57691 4.77753 10.2319 4.39319 10.8044C3.96782 11.322 3.42584 11.7313 2.81168 11.9989C3.60319 12.3023 4.25932 12.8801 4.66048 13.6268C5.11667 14.7648 5.31265 15.9904 5.23406 17.214C5.23406 18.7206 5.24953 19.6178 5.28046 19.9055C5.29233 20.3168 5.45945 20.7084 5.74823 21.0016C6.19551 21.2589 6.71262 21.3683 7.22579 21.3144H7.58497V23.1362H6.93529C6.38041 23.1618 5.82498 23.0992 5.28974 22.9506C4.80815 22.7822 4.38276 22.4834 4.06092 22.0875C3.7188 21.6488 3.50054 21.1264 3.42888 20.5746C3.31081 19.5787 3.25965 18.5759 3.27574 17.5731C3.30071 16.6081 3.23421 15.6429 3.07712 14.6904C2.97737 14.1973 2.71412 13.7522 2.32999 13.4273C1.91473 13.1043 1.40166 12.9327 0.875641 12.9409V11.0485Z" fill="#FBC02D"/>
<path d="M23.1243 12.9371C22.5983 12.9289 22.0853 13.1005 21.67 13.4234C21.2859 13.7484 21.0226 14.1934 20.9229 14.6866C20.7662 15.6401 20.7003 16.6062 20.7261 17.5721C20.741 18.575 20.6886 19.5777 20.5693 20.5736C20.4976 21.1253 20.2793 21.6477 19.9372 22.0864C19.6154 22.4823 19.19 22.7811 18.7084 22.9496C18.1731 23.0981 17.6177 23.1608 17.0628 23.1352H16.4132V21.317H16.7723C17.2855 21.371 17.8026 21.2616 18.2499 21.0043C18.5404 20.7102 18.7083 20.3167 18.7195 19.9035C18.7505 19.6177 18.7659 18.7205 18.7659 17.212C18.6873 15.9885 18.8833 14.7629 19.3395 13.6248C19.741 12.8788 20.3971 12.3018 21.1883 11.9988C20.5756 11.731 20.0349 11.322 19.6105 10.8052C19.2262 10.2327 18.982 9.57773 18.8977 8.89332C18.782 7.61817 18.7395 6.33744 18.7706 5.05743C18.8509 4.38466 18.7126 3.70389 18.3761 3.11582C17.9215 2.76519 17.3465 2.609 16.777 2.68146H16.4178V0.861432H17.0675C17.5468 0.845368 18.0263 0.884293 18.4968 0.977447C18.8866 1.07915 19.2502 1.263 19.5632 1.51668C19.8608 1.77861 20.0997 2.10061 20.2639 2.4615C20.4794 2.95786 20.6106 3.48674 20.6519 4.0263C20.6902 4.4359 20.7134 5.28574 20.7215 6.57582C20.6984 7.49176 20.7643 8.40776 20.9182 9.31097C21.017 9.80294 21.2805 10.2465 21.6654 10.5686C22.0821 10.8882 22.5946 11.0576 23.1197 11.0493L23.1243 12.9371Z" fill="#FBC02D"/>
</svg>
