<svg width="24" height="24" viewBox="0 0 24 24" fill="none" xmlns="http://www.w3.org/2000/svg">
<mask id="mask0_158_68" style="mask-type:luminance" maskUnits="userSpaceOnUse" x="0" y="1" width="24" height="22">
<path d="M23.7253 1.52393H0.274658V22.4764H23.7253V1.52393Z" fill="white"/>
</mask>
<g mask="url(#mask0_158_68)">
<path d="M2.04756 19.4812L3.08175 21.2675C3.29666 21.6436 3.60556 21.9391 3.96821 22.1539L7.66176 15.7607H0.274658C0.274658 16.1771 0.382107 16.5935 0.597004 16.9695L2.04756 19.4812Z" fill="#0066DA"/>
<path d="M12 8.2394L8.30645 1.84619C7.94382 2.06109 7.6349 2.35657 7.42001 2.73264L0.597004 14.552C0.386059 14.92 0.274939 15.3367 0.274658 15.7608H7.66176L12 8.2394Z" fill="#00AC47"/>
<path d="M20.0319 22.1539C20.3945 21.9391 20.7034 21.6436 20.9183 21.2675L21.3481 20.5288L23.4031 16.9695C23.6179 16.5935 23.7254 16.1771 23.7254 15.7607H16.3378L17.9098 18.8499L20.0319 22.1539Z" fill="#EA4335"/>
<path d="M12.0001 8.23948L15.6937 1.84627C15.3311 1.63137 14.9147 1.52393 14.4849 1.52393H9.51539C9.08559 1.52393 8.66923 1.64481 8.30658 1.84627L12.0001 8.23948Z" fill="#00832D"/>
<path d="M16.3384 15.7607H7.66187L3.96832 22.1539C4.33097 22.3689 4.74734 22.4763 5.17712 22.4763H18.8231C19.2529 22.4763 19.6693 22.3554 20.0319 22.1539L16.3384 15.7607Z" fill="#2684FC"/>
<path d="M19.9914 8.64234L16.5799 2.73264C16.365 2.35657 16.0561 2.06109 15.6934 1.84619L11.9999 8.2394L16.3381 15.7608H23.7118C23.7118 15.3444 23.6043 14.9281 23.3896 14.552L19.9914 8.64234Z" fill="#FFBA00"/>
</g>
</svg>
