<svg width="24" height="24" viewBox="0 0 24 24" fill="none" xmlns="http://www.w3.org/2000/svg">
<path fill-rule="evenodd" clip-rule="evenodd" d="M14.9031 10.6951C14.5739 11.0243 14.0738 10.5242 14.403 10.195L16.1932 8.40479L14.403 6.6146C14.0738 6.28537 14.5739 5.78526 14.9031 6.11449L16.9438 8.1552C17.082 8.29342 17.082 8.51708 16.9438 8.65531L14.9031 10.6951ZM12.6167 4.73713C12.7367 4.28791 13.4201 4.47029 13.2991 4.9195L11.3822 12.0715C11.2623 12.5207 10.5788 12.3383 10.6998 11.8891L12.6167 4.73713ZM10.8025 18.3827C10.8025 20.0183 10.9686 20.5204 9.61322 21.1184C9.28013 21.2653 8.94034 21.415 8.82804 21.871H15.1718C14.9011 20.7786 13.1973 21.3699 13.1973 19.4972V18.3837L10.8025 18.3827ZM23.4404 15.3878H0.558779V16.6135C0.558779 17.1991 1.03775 17.6752 1.6204 17.6752H22.3796C22.9642 17.6752 23.4412 17.1981 23.4412 16.6135L23.4404 15.3878ZM0.558779 14.6803H23.4413L23.4404 3.19053C23.4404 2.60788 22.9624 2.12891 22.3788 2.12891H1.62028C1.03667 2.12891 0.558655 2.60692 0.558655 3.19053L0.558779 14.6803ZM9.59597 10.1948C9.9252 10.524 9.42511 11.0241 9.09586 10.6949L7.05515 8.6542C6.91693 8.51598 6.91693 8.29232 7.05515 8.15409L9.09586 6.11338C9.42509 5.78416 9.9252 6.28424 9.59597 6.61349L7.80578 8.40368L9.59597 10.1948Z" fill="#062013"/>
<rect x="6.39355" y="4.19092" width="11.3989" height="8.42725" fill="#062013"/>
</svg>
