<svg width="24" height="24" viewBox="0 0 24 24" fill="none" xmlns="http://www.w3.org/2000/svg">
<g clip-path="url(#clip0_162_275)">
<path d="M14.6086 6.35382H20.4371L14.6086 0.525391V6.35382Z" fill="#188038"/>
<path d="M14.6086 6.35382V0.525391H4.84985C4.13672 0.525391 3.56299 1.09912 3.56299 1.81226V22.1876C3.56299 22.9008 4.13672 23.4745 4.84985 23.4745H19.1501C19.8633 23.4745 20.437 22.9008 20.437 22.1876V6.35382H14.6086Z" fill="#34A853"/>
<path d="M6.78027 9.52856V17.416H17.22V9.52856H6.78027ZM11.354 16.1291H8.06714V14.113H11.354V16.1291ZM11.354 12.8315H8.06714V10.8154H11.354V12.8315ZM15.9331 16.1291H12.6462V14.113H15.9331V16.1291ZM15.9331 12.8315H12.6462V10.8154H15.9331V12.8315Z" fill="white"/>
</g>
<defs>
<clipPath id="clip0_162_275">
<rect width="24" height="24" fill="white"/>
</clipPath>
</defs>
</svg>
