<svg width="24" height="24" viewBox="0 0 24 24" fill="none" xmlns="http://www.w3.org/2000/svg">
<path d="M22.3623 2.10889H7.28979C7.04002 2.10889 6.80047 2.20811 6.62386 2.38472C6.44724 2.56134 6.34802 2.80088 6.34802 3.05065V7.05439L14.826 9.52715L23.304 7.05439V3.05065C23.304 2.80088 23.2048 2.56134 23.0282 2.38472C22.8516 2.20811 22.6121 2.10889 22.3623 2.10889Z" fill="#41A5EE"/>
<path d="M23.304 7.0542H6.34802V11.9997L14.826 14.4725L23.304 11.9997V7.0542Z" fill="#2B7CD3"/>
<path d="M23.304 11.9995H6.34802V16.945L14.826 19.4178L23.304 16.945V11.9995Z" fill="#185ABD"/>
<path d="M23.304 16.9453H6.34802V20.9491C6.34802 21.1988 6.44724 21.4384 6.62386 21.615C6.80047 21.7916 7.04002 21.8908 7.28979 21.8908H22.3623C22.6121 21.8908 22.8516 21.7916 23.0282 21.615C23.2048 21.4384 23.304 21.1988 23.304 20.9491V16.9453Z" fill="#103F91"/>
<path opacity="0.1" d="M12.4713 5.64111H6.34802V19.0646H12.4713C12.7208 19.0639 12.9599 18.9644 13.1364 18.788C13.3128 18.6115 13.4123 18.3724 13.413 18.1229V6.58288C13.4123 6.33334 13.3128 6.09423 13.1364 5.91777C12.9599 5.74132 12.7208 5.64186 12.4713 5.64111Z" fill="black"/>
<path opacity="0.2" d="M11.7648 6.34766H6.34802V19.7712H11.7648C12.0143 19.7704 12.2534 19.671 12.4299 19.4945C12.6063 19.3181 12.7058 19.079 12.7065 18.8294V7.28942C12.7058 7.03988 12.6063 6.80077 12.4299 6.62432C12.2534 6.44786 12.0143 6.3484 11.7648 6.34766Z" fill="black"/>
<path opacity="0.2" d="M11.7648 6.34766H6.34802V18.3582H11.7648C12.0143 18.3574 12.2534 18.258 12.4299 18.0815C12.6063 17.9051 12.7058 17.6659 12.7065 17.4164V7.28942C12.7058 7.03988 12.6063 6.80077 12.4299 6.62432C12.2534 6.44786 12.0143 6.3484 11.7648 6.34766Z" fill="black"/>
<path opacity="0.2" d="M11.0583 6.34766H6.34802V18.3582H11.0583C11.3078 18.3574 11.5469 18.258 11.7234 18.0815C11.8998 17.9051 11.9993 17.6659 12 17.4164V7.28942C11.9993 7.03988 11.8998 6.80077 11.7234 6.62432C11.5469 6.44786 11.3078 6.3484 11.0583 6.34766Z" fill="black"/>
<path d="M1.63781 6.34766H11.0583C11.3081 6.34766 11.5476 6.44688 11.7242 6.62349C11.9008 6.80011 12.0001 7.03965 12.0001 7.28942V16.7099C12.0001 16.9597 11.9008 17.1992 11.7242 17.3758C11.5476 17.5525 11.3081 17.6517 11.0583 17.6517H1.63781C1.38804 17.6517 1.1485 17.5525 0.971882 17.3758C0.795266 17.1992 0.696045 16.9597 0.696045 16.7099L0.696045 7.28942C0.696045 7.03965 0.795266 6.80011 0.971882 6.62349C1.1485 6.44688 1.38804 6.34766 1.63781 6.34766Z" fill="#185ABD"/>
<path d="M9.13865 15.5323H7.86694L6.38329 10.6574L4.82899 15.5323H3.55729L2.14429 8.46729H3.41599L4.40509 13.4128L5.88874 8.60859H6.94849L8.3615 13.4128L9.3506 8.46729H10.5516L9.13865 15.5323Z" fill="white"/>
</svg>
