<svg width="24" height="24" viewBox="0 0 24 24" fill="none" xmlns="http://www.w3.org/2000/svg">
<path d="M1.89758 4.79022C1.89758 4.3017 2.2945 3.90479 2.78302 3.90479H21.3619C21.8505 3.90479 22.2474 4.3017 22.2474 4.79022V19.2091C22.2474 19.6976 21.8505 20.0945 21.3619 20.0945H2.78302C2.2945 20.0945 1.89758 19.6976 1.89758 19.2091V4.79022Z" fill="white"/>
<path d="M13.4618 8.30154C13.4618 7.91989 13.7747 7.60693 14.1564 7.60693H20.1713C20.5529 7.60693 20.8659 7.91989 20.8659 8.30154C20.8659 8.6832 20.5529 8.99615 20.1713 8.99615H14.1564C13.7747 8.99615 13.4618 8.6832 13.4618 8.30154ZM13.4618 12.0036C13.4618 11.6219 13.7747 11.309 14.1564 11.309H20.1713C20.5529 11.309 20.8659 11.6219 20.8659 12.0036C20.8659 12.3852 20.5529 12.6982 20.1713 12.6982H14.1564C13.7747 12.6982 13.4618 12.3852 13.4618 12.0036ZM13.4618 15.698C13.4618 15.3163 13.7747 15.0034 14.1564 15.0034H20.1713C20.5529 15.0034 20.8659 15.3163 20.8659 15.698C20.8659 16.0797 20.5529 16.3926 20.1713 16.3926H14.1564C13.7747 16.3926 13.4618 16.0873 13.4618 15.698Z" fill="#DFE1E6"/>
<path d="M22.2016 3.33263H14.8739C14.8433 3.33263 14.8204 3.33263 14.7899 3.34026V1.59229L0.439697 3.2334V20.7208L14.7899 22.4077V20.6139C14.8204 20.6139 14.8433 20.6216 14.8739 20.6216H22.2016C22.5604 20.6216 22.9039 20.4842 23.1634 20.2323C23.4153 19.9804 23.5603 19.6445 23.5603 19.2858V4.66842C23.5603 4.30966 23.4153 3.97381 23.1634 3.72191C22.9039 3.47766 22.5604 3.33263 22.2016 3.33263ZM4.51576 13.019C4.76002 13.019 5.00428 12.9808 5.23327 12.9045L5.36303 13.6144C5.20274 13.6907 4.85162 13.7747 4.386 13.7594C3.11128 13.7289 2.4701 12.8816 2.4701 11.7824C2.4701 10.4696 3.3479 9.71388 4.46996 9.68335C4.91268 9.66808 5.25617 9.75968 5.40883 9.83601L5.23327 10.5535C5.00428 10.4619 4.76002 10.4085 4.50813 10.4161C3.83642 10.4238 3.325 10.8588 3.325 11.7214C3.33264 12.5076 3.76772 13.0037 4.51576 13.019ZM6.90492 13.8205C6.45456 13.8052 6.00421 13.6755 5.79049 13.5457L5.97368 12.7976C6.279 12.9579 6.61486 13.0495 6.96598 13.0648C7.3858 13.0724 7.60716 12.8969 7.60716 12.6297C7.60716 12.3702 7.41633 12.2252 6.93545 12.0496C6.279 11.813 5.85155 11.439 5.85155 10.8588C5.85155 10.1719 6.40877 9.62992 7.34764 9.60702C7.80562 9.59175 8.14911 9.68335 8.39337 9.79021L8.18727 10.5535C7.92012 10.4314 7.63006 10.3627 7.33237 10.3703C6.94308 10.378 6.75226 10.5612 6.75226 10.7749C6.75226 11.0344 6.97362 11.1489 7.49266 11.3397C8.21781 11.6069 8.5613 11.9885 8.5613 12.5763C8.55366 13.2709 8.01935 13.851 6.90492 13.8205ZM11.355 13.8739L10.1948 13.8434L8.82845 9.63755L9.88182 9.61465L10.4085 11.4008C10.5535 11.9046 10.6909 12.3931 10.7978 12.9274H10.8207C10.9276 12.416 11.0726 11.9046 11.2176 11.4161L11.7901 9.56885L12.8816 9.53832L11.355 13.8739ZM22.7817 19.2781C22.7817 19.4308 22.7207 19.5758 22.6138 19.6827C22.5069 19.7896 22.3543 19.8506 22.2016 19.8506H14.8739C14.8433 19.8506 14.8204 19.8506 14.7899 19.843V4.10357C14.8204 4.09594 14.8433 4.09594 14.8739 4.09594H22.2016C22.3543 4.09594 22.5069 4.157 22.6138 4.26386C22.7207 4.37073 22.7817 4.51576 22.7817 4.66842V19.2781Z" fill="#0B8938"/>
</svg>
