<svg width="24" height="24" viewBox="0 0 24 24" fill="none" xmlns="http://www.w3.org/2000/svg">
<g clip-path="url(#clip0_162_268)">
<path d="M5.07902 0.594563C3.78032 0.594563 2.72314 1.6525 2.72314 2.95115V21.0491C2.72314 22.3477 3.78032 23.4056 5.07902 23.4056H18.9179C20.2166 23.4056 21.2738 22.3478 21.2738 21.0491V6.16754C21.2738 6.16754 21.3109 5.73178 21.1217 5.30774C20.9444 4.91026 20.6554 4.63361 20.6554 4.63361C20.6547 4.63264 20.6539 4.63166 20.6532 4.63069L17.2197 1.26291C17.2178 1.26098 17.2159 1.25908 17.214 1.2572C17.214 1.2572 16.9209 0.978066 16.4863 0.791596C15.9747 0.572036 15.4473 0.595213 15.4473 0.595213L15.4551 0.594482L5.07902 0.594563Z" fill="#FF2116"/>
<path d="M5.07896 1.3689H15.4551C15.4577 1.36892 15.4603 1.36892 15.463 1.3689C15.463 1.3689 15.8779 1.37292 16.1814 1.50315C16.4735 1.6285 16.6806 1.81824 16.682 1.81951C16.682 1.81951 16.6834 1.82097 16.6834 1.82097L20.1083 5.18089C20.1083 5.18089 20.3146 5.39875 20.4147 5.62294C20.4954 5.80389 20.5004 6.13496 20.5004 6.13496C20.5 6.14043 20.4998 6.1459 20.4996 6.15138V21.0493C20.4996 21.9326 19.8012 22.6318 18.9178 22.6318H5.07896C4.19564 22.6318 3.49719 21.9327 3.49719 21.0493V2.95141C3.49719 2.06804 4.19564 1.3689 5.07896 1.3689Z" fill="#F5F5F5"/>
<path d="M7.35508 14.1762C6.82247 13.6436 7.39871 12.9117 8.96256 12.1346L9.94655 11.6456L10.3299 10.8068C10.5407 10.3455 10.8554 9.59279 11.0292 9.13413L11.3451 8.30019L11.1274 7.68304C10.8597 6.92419 10.7642 5.78383 10.9341 5.37378C11.1641 4.81835 11.9177 4.87534 12.2161 5.47072C12.4491 5.93571 12.4253 6.7778 12.1491 7.8398L11.9226 8.71045L12.1221 9.04904C12.2318 9.23526 12.5522 9.67743 12.8341 10.0316L13.364 10.6908L14.0234 10.6047C16.1181 10.3314 16.8355 10.7959 16.8355 11.462C16.8355 12.3027 15.1907 12.3721 13.8095 11.402C13.4988 11.1837 13.2854 10.9669 13.2854 10.9669C13.2854 10.9669 12.4201 11.143 11.9941 11.2579C11.5543 11.3764 11.3349 11.4506 10.6908 11.668C10.6908 11.668 10.4648 11.9963 10.3175 12.2349C9.76958 13.1226 9.12982 13.8582 8.67293 14.126C8.16138 14.4258 7.62509 14.4462 7.35508 14.1762ZM8.19093 13.8776C8.49031 13.6926 9.09628 12.9759 9.51575 12.3107L9.68558 12.0414L8.91229 12.4302C7.71794 13.0307 7.17155 13.5967 7.45567 13.939C7.61528 14.1313 7.80622 14.1154 8.19093 13.8776ZM15.9489 11.7C16.2417 11.4949 16.1992 11.0816 15.8681 10.9149C15.6105 10.7852 15.4028 10.7586 14.7335 10.7685C14.3222 10.7965 13.6609 10.8794 13.5488 10.9046C13.5488 10.9046 13.9121 11.1557 14.0734 11.248C14.2881 11.3707 14.81 11.5983 15.191 11.715C15.5668 11.83 15.7842 11.8179 15.9489 11.7ZM12.8295 10.4035C12.6523 10.2172 12.3509 9.8284 12.1598 9.53946C11.9099 9.2117 11.7846 8.98046 11.7846 8.98046C11.7846 8.98046 11.6019 9.56801 11.4521 9.92157L10.9845 11.0772L10.849 11.3394C10.849 11.3394 11.5696 11.1031 11.9363 11.0073C12.3247 10.9059 13.1128 10.7509 13.1128 10.7509L12.8295 10.4035ZM11.8242 6.37219C11.8695 5.99285 11.8886 5.61407 11.7668 5.42307C11.4287 5.0535 11.0207 5.36169 11.0898 6.24031C11.113 6.53588 11.1865 7.04116 11.2846 7.35259L11.4631 7.91881L11.5887 7.49235C11.6578 7.25779 11.7638 6.75372 11.8242 6.37219Z" fill="#FF2116"/>
<path d="M8.26086 16.6426H9.12557C9.40187 16.6426 9.62615 16.669 9.79841 16.7219C9.97067 16.7731 10.1156 16.8882 10.2333 17.0673C10.351 17.2446 10.4098 17.4587 10.4098 17.7094C10.4098 17.9396 10.3621 18.1375 10.2666 18.3029C10.1711 18.4684 10.0423 18.5877 9.88027 18.6611C9.71995 18.7344 9.47265 18.7711 9.13836 18.7711H8.83904V20.1347H8.26086V16.6426ZM8.83904 17.0903V18.308H9.12557C9.3814 18.308 9.55792 18.2603 9.65514 18.1648C9.75406 18.0693 9.80352 17.9141 9.80352 17.6992C9.80352 17.5388 9.77112 17.4092 9.70631 17.3103C9.6415 17.2097 9.56986 17.1483 9.49141 17.1261C9.41466 17.1022 9.29271 17.0903 9.12557 17.0903L8.83904 17.0903ZM10.8524 16.6426H11.6378C12.0182 16.6426 12.3217 16.7099 12.5486 16.8447C12.7771 16.9794 12.9494 17.1798 13.0654 17.4459C13.183 17.7119 13.2419 18.007 13.2419 18.3311C13.2419 18.6722 13.189 18.9766 13.0833 19.2444C12.9792 19.5104 12.8189 19.7253 12.6023 19.8891C12.3874 20.0528 12.0804 20.1347 11.6813 20.1347H10.8524V16.6426ZM11.4306 17.1056V19.6716H11.6711C12.0071 19.6716 12.251 19.5556 12.4028 19.3237C12.5546 19.09 12.6304 18.7788 12.6304 18.3899C12.6304 17.5337 12.3107 17.1056 11.6711 17.1056H11.4306ZM13.797 16.6426H15.7362V17.1056H14.3752V18.1494H15.4651V18.6125H14.3752V20.1347H13.797V16.6426Z" fill="#2C2C2C"/>
</g>
<defs>
<clipPath id="clip0_162_268">
<rect width="24" height="24" fill="white"/>
</clipPath>
</defs>
</svg>
