<svg width="44" height="44" viewBox="0 0 44 44" fill="none" xmlns="http://www.w3.org/2000/svg">
<g clip-path="url(#clip0_396_430)">
<mask id="mask0_396_430" style="mask-type:luminance" maskUnits="userSpaceOnUse" x="0" y="0" width="44" height="44">
<path d="M43.1852 0.814453H0.814453V43.1852H43.1852V0.814453Z" fill="white"/>
</mask>
<g mask="url(#mask0_396_430)">
<path fill-rule="evenodd" clip-rule="evenodd" d="M43.1828 21.9974L40.9732 24.2094L32.5901 15.8264V11.4047L43.1828 21.9974ZM22.0071 0.814453L19.7975 3.02407L28.1782 11.4047H32.5998L22.0071 0.814453ZM17.2649 5.55658L15.0529 7.76861L18.6914 11.4047H23.113L17.2649 5.55658ZM32.5998 20.8937V25.3155L36.2238 28.9516L38.4358 26.742L32.5998 20.8937ZM31.3251 29.1059L32.5901 27.8407H16.1493V11.4047L14.8842 12.6722L12.5108 10.3108L10.3011 12.5204L12.6722 14.8939L11.4047 16.1493V18.6818L7.76861 15.0433L5.55658 17.2553L11.4047 23.1035V28.1637L3.02407 19.7878L0.814453 21.9974L22.0071 43.1828L24.2191 40.9732L15.836 32.5901H20.8962L26.7444 38.4406L28.9565 36.2286L25.318 32.5901H27.8503L29.1155 31.3251L31.4888 33.6962L33.6986 31.4864L31.3251 29.1059Z" fill="#FF6363"/>
</g>
</g>
<defs>
<clipPath id="clip0_396_430">
<rect width="44" height="44" fill="white"/>
</clipPath>
</defs>
</svg>
