<svg width="24" height="24" viewBox="0 0 24 24" fill="none" xmlns="http://www.w3.org/2000/svg">
<g clip-path="url(#clip0_277_107)">
<path d="M11.9996 0.476281C8.19324 0.476281 4.82281 2.31632 2.72547 5.15554L6.2849 11.3208C6.45027 9.93343 7.11412 8.65343 8.15288 7.71902C9.19163 6.78462 10.5345 6.25949 11.9316 6.24137C11.9542 6.2389 11.9769 6.23777 11.9997 6.23799H21.981C19.9902 2.79294 16.27 0.476281 11.9996 0.476281ZM2.01848 6.23705C1.03878 7.93203 0.475586 9.89904 0.475586 12.0001C0.475586 17.9355 4.94741 22.8124 10.7102 23.4519L14.2641 17.2968C13.5484 17.6033 12.778 17.7616 11.9993 17.7621C11.0036 17.7608 10.0252 17.5014 9.15949 17.0093C8.29382 16.5172 7.57045 15.8092 7.05993 14.9543C7.04119 14.9312 7.02426 14.9068 7.00929 14.8811L2.01848 6.23705ZM11.9996 7.39056C10.777 7.39056 9.60459 7.8762 8.74013 8.74066C7.87568 9.60511 7.39003 10.7776 7.39003 12.0001C7.39003 13.2226 7.87568 14.3951 8.74013 15.2595C9.60459 16.124 10.777 16.6096 11.9996 16.6096C13.2221 16.6096 14.3945 16.124 15.259 15.2595C16.1235 14.3951 16.6091 13.2226 16.6091 12.0001C16.6091 10.7776 16.1235 9.60511 15.259 8.74066C14.3945 7.8762 13.2221 7.39056 11.9996 7.39056ZM15.4472 7.39056C16.1646 7.92626 16.7472 8.62177 17.149 9.4219C17.5507 10.222 17.7604 11.1048 17.7615 12.0001C17.7592 12.9776 17.5083 13.9384 17.0323 14.7921C17.0208 14.8229 17.0067 14.8527 16.9901 14.881L12.0003 23.5239C18.3712 23.5236 23.5236 18.371 23.5236 12.0001C23.5236 10.3601 23.1804 8.80193 22.5647 7.39055L15.4472 7.39056Z" fill="white"/>
</g>
<defs>
<clipPath id="clip0_277_107">
<rect width="24" height="24" fill="white"/>
</clipPath>
</defs>
</svg>
