<svg width="153" height="45" viewBox="0 0 153 45" fill="none" xmlns="http://www.w3.org/2000/svg">
<path d="M0.185699 16.0494H13.6024V18.5564H8.33324V32.623H5.43169V18.5564H0.185699V16.0494ZM23.8197 29.9536C23.8197 30.2786 23.8584 30.5107 23.9357 30.65C24.0286 30.7893 24.1988 30.8589 24.4464 30.8589C24.5238 30.8589 24.6166 30.8589 24.725 30.8589C24.8333 30.8589 24.9571 30.8434 25.0964 30.8125V32.6463C25.0035 32.6772 24.8797 32.7082 24.725 32.7391C24.5857 32.7855 24.4387 32.8242 24.2839 32.8552C24.1292 32.8861 23.9744 32.9093 23.8197 32.9248C23.6649 32.9403 23.5334 32.948 23.4251 32.948C22.8835 32.948 22.4347 32.8397 22.0788 32.623C21.7228 32.4064 21.4907 32.0273 21.3824 31.4856C20.8562 31.9963 20.2063 32.3677 19.4326 32.5998C18.6743 32.832 17.9392 32.948 17.2274 32.948C16.6858 32.948 16.1673 32.8706 15.6721 32.7159C15.177 32.5766 14.7359 32.3677 14.349 32.0892C13.9776 31.7951 13.6759 31.4315 13.4438 30.9982C13.2271 30.5494 13.1188 30.031 13.1188 29.443C13.1188 28.7002 13.2503 28.0966 13.5134 27.6324C13.7919 27.1681 14.1479 26.8045 14.5812 26.5414C15.0299 26.2783 15.5251 26.0926 16.0668 25.9843C16.6239 25.8605 17.181 25.7677 17.738 25.7058C18.2178 25.6129 18.6743 25.551 19.1076 25.5201C19.5409 25.4736 19.92 25.404 20.245 25.3112C20.5854 25.2183 20.8485 25.079 21.0342 24.8933C21.2354 24.6922 21.336 24.3981 21.336 24.0113C21.336 23.6708 21.2509 23.3923 21.0806 23.1756C20.9259 22.959 20.7247 22.7965 20.4771 22.6882C20.245 22.5644 19.9819 22.487 19.6879 22.456C19.3939 22.4096 19.1153 22.3864 18.8522 22.3864C18.1094 22.3864 17.4982 22.5411 17.0185 22.8506C16.5387 23.1601 16.2679 23.6399 16.206 24.2898H13.5598C13.6062 23.5161 13.7919 22.8739 14.1169 22.3632C14.4419 21.8525 14.852 21.4424 15.3472 21.1329C15.8578 20.8234 16.4304 20.6068 17.0649 20.483C17.6994 20.3592 18.3493 20.2973 19.0147 20.2973C19.6028 20.2973 20.1831 20.3592 20.7557 20.483C21.3282 20.6068 21.8389 20.808 22.2877 21.0865C22.7519 21.3651 23.1233 21.7287 23.4019 22.1775C23.6804 22.6108 23.8197 23.1447 23.8197 23.7791V29.9536ZM21.1735 26.611C20.7711 26.8741 20.2759 27.0366 19.6879 27.0985C19.0998 27.1449 18.5118 27.2223 17.9237 27.3306C17.6452 27.3771 17.3744 27.4467 17.1113 27.5395C16.8482 27.6169 16.6161 27.733 16.4149 27.8877C16.2138 28.027 16.0513 28.2204 15.9275 28.468C15.8192 28.7002 15.765 28.9864 15.765 29.3269C15.765 29.6209 15.8501 29.8685 16.0203 30.0697C16.1906 30.2709 16.3917 30.4333 16.6239 30.5571C16.8715 30.6655 17.1345 30.7428 17.4131 30.7893C17.7071 30.8357 17.9702 30.8589 18.2023 30.8589C18.4963 30.8589 18.8136 30.8202 19.154 30.7428C19.4945 30.6655 19.8117 30.5339 20.1057 30.3482C20.4152 30.1625 20.6705 29.9304 20.8717 29.6519C21.0729 29.3578 21.1735 29.0019 21.1735 28.5841V26.611ZM27.6651 16.0494H30.3113V22.1775H30.3578C30.5435 21.8835 30.7679 21.6204 31.0309 21.3883C31.294 21.1561 31.5803 20.9627 31.8898 20.808C32.2148 20.6377 32.5475 20.5139 32.8879 20.4366C33.2438 20.3437 33.592 20.2973 33.9325 20.2973C34.8764 20.2973 35.6966 20.4675 36.393 20.808C37.1048 21.1329 37.6929 21.5894 38.1571 22.1775C38.6214 22.7501 38.9696 23.4232 39.2017 24.197C39.4338 24.9707 39.5499 25.7986 39.5499 26.6807C39.5499 27.4854 39.4415 28.2669 39.2249 29.0251C39.0237 29.7834 38.7065 30.4566 38.2732 31.0446C37.8554 31.6172 37.3215 32.0814 36.6715 32.4373C36.0216 32.7778 35.2556 32.948 34.3735 32.948C33.9712 32.948 33.5611 32.9171 33.1433 32.8552C32.7409 32.8087 32.354 32.7082 31.9826 32.5534C31.6112 32.3987 31.2708 32.1975 30.9613 31.9499C30.6673 31.7023 30.4197 31.3773 30.2185 30.975H30.1721V32.623H27.6651V16.0494ZM36.9037 26.6343C36.9037 26.0926 36.834 25.5665 36.6947 25.0558C36.5555 24.5451 36.3466 24.0964 36.068 23.7095C35.7895 23.3072 35.4413 22.9899 35.0235 22.7578C34.6056 22.5102 34.1259 22.3864 33.5843 22.3864C32.4701 22.3864 31.6267 22.7733 31.0541 23.547C30.497 24.3208 30.2185 25.3498 30.2185 26.6343C30.2185 27.2378 30.2881 27.8026 30.4274 28.3288C30.5822 28.8394 30.8065 29.2805 31.1006 29.6519C31.3946 30.0233 31.7428 30.3173 32.1451 30.5339C32.5629 30.7506 33.0427 30.8589 33.5843 30.8589C34.1878 30.8589 34.6985 30.7351 35.1163 30.4875C35.5341 30.2399 35.8746 29.9227 36.1377 29.5358C36.4162 29.1335 36.6096 28.6847 36.718 28.1895C36.8418 27.6788 36.9037 27.1604 36.9037 26.6343ZM42.784 16.0494H45.4302V32.623H42.784V16.0494ZM57.4823 25.5665C57.4514 25.1487 57.3585 24.7463 57.2038 24.3594C57.0645 23.9726 56.8633 23.6399 56.6002 23.3613C56.3527 23.0673 56.0432 22.8352 55.6718 22.6649C55.3158 22.4792 54.9135 22.3864 54.4647 22.3864C54.0005 22.3864 53.5749 22.4715 53.188 22.6417C52.8166 22.7965 52.4917 23.0209 52.2131 23.3149C51.95 23.5934 51.7334 23.9262 51.5632 24.313C51.4084 24.6999 51.3233 25.1177 51.3078 25.5665H57.4823ZM51.3078 27.3074C51.3078 27.7717 51.3697 28.2204 51.4935 28.6537C51.6328 29.087 51.834 29.4662 52.0971 29.7911C52.3601 30.1161 52.6928 30.3792 53.0952 30.5804C53.4975 30.7661 53.9773 30.8589 54.5343 30.8589C55.3081 30.8589 55.9271 30.6964 56.3913 30.3714C56.8711 30.031 57.227 29.5281 57.4591 28.8626H59.966C59.8268 29.5126 59.5869 30.0929 59.2465 30.6036C58.906 31.1142 58.4959 31.5475 58.0162 31.9035C57.5365 32.2439 56.9949 32.4992 56.3913 32.6695C55.8033 32.8552 55.1843 32.948 54.5343 32.948C53.5904 32.948 52.7547 32.7933 52.0274 32.4838C51.3001 32.1743 50.6811 31.741 50.1704 31.1839C49.6752 30.6268 49.2961 29.9614 49.033 29.1876C48.7854 28.4139 48.6616 27.5628 48.6616 26.6343C48.6616 25.7831 48.7932 24.9784 49.0562 24.2202C49.3348 23.4464 49.7217 22.7733 50.2169 22.2007C50.7275 21.6127 51.3388 21.1484 52.0506 20.808C52.7625 20.4675 53.5672 20.2973 54.4647 20.2973C55.4087 20.2973 56.2521 20.4985 56.9949 20.9008C57.7531 21.2877 58.3799 21.8061 58.8751 22.456C59.3703 23.106 59.7262 23.8565 59.9428 24.7076C60.175 25.5433 60.2369 26.4099 60.1285 27.3074H51.3078Z" fill="white"/>
<path d="M106.675 16.0494H113.987C115.163 16.0494 116.123 16.2196 116.865 16.5601C117.608 16.9005 118.181 17.3261 118.583 17.8368C118.986 18.3474 119.256 18.9045 119.396 19.5081C119.55 20.1116 119.628 20.6687 119.628 21.1794C119.628 21.69 119.55 22.2471 119.396 22.8506C119.256 23.4387 118.986 23.988 118.583 24.4987C118.181 25.0094 117.608 25.435 116.865 25.7754C116.123 26.1004 115.163 26.2629 113.987 26.2629H109.577V32.623H106.675V16.0494ZM109.577 23.8952H113.825C114.15 23.8952 114.482 23.8488 114.823 23.7559C115.163 23.6631 115.473 23.5161 115.751 23.3149C116.045 23.0982 116.277 22.8197 116.448 22.4792C116.633 22.1233 116.726 21.6823 116.726 21.1561C116.726 20.6145 116.649 20.1657 116.494 19.8098C116.339 19.4539 116.13 19.1754 115.867 18.9742C115.604 18.7575 115.303 18.6105 114.962 18.5331C114.622 18.4558 114.258 18.4171 113.871 18.4171H109.577V23.8952ZM128.216 32.948C127.257 32.948 126.398 32.7933 125.64 32.4838C124.897 32.1588 124.262 31.7178 123.736 31.1607C123.225 30.6036 122.831 29.9382 122.552 29.1644C122.289 28.3907 122.158 27.5395 122.158 26.611C122.158 25.698 122.289 24.8546 122.552 24.0809C122.831 23.3072 123.225 22.6417 123.736 22.0846C124.262 21.5275 124.897 21.0942 125.64 20.7847C126.398 20.4598 127.257 20.2973 128.216 20.2973C129.176 20.2973 130.027 20.4598 130.77 20.7847C131.528 21.0942 132.162 21.5275 132.673 22.0846C133.199 22.6417 133.594 23.3072 133.857 24.0809C134.135 24.8546 134.275 25.698 134.275 26.611C134.275 27.5395 134.135 28.3907 133.857 29.1644C133.594 29.9382 133.199 30.6036 132.673 31.1607C132.162 31.7178 131.528 32.1588 130.77 32.4838C130.027 32.7933 129.176 32.948 128.216 32.948ZM128.216 30.8589C128.804 30.8589 129.315 30.7351 129.748 30.4875C130.181 30.2399 130.537 29.9149 130.816 29.5126C131.094 29.1102 131.296 28.6615 131.419 28.1663C131.559 27.6556 131.628 27.1372 131.628 26.611C131.628 26.1004 131.559 25.5897 131.419 25.079C131.296 24.5684 131.094 24.1196 130.816 23.7327C130.537 23.3304 130.181 23.0054 129.748 22.7578C129.315 22.5102 128.804 22.3864 128.216 22.3864C127.628 22.3864 127.117 22.5102 126.684 22.7578C126.251 23.0054 125.895 23.3304 125.616 23.7327C125.338 24.1196 125.129 24.5684 124.99 25.079C124.866 25.5897 124.804 26.1004 124.804 26.611C124.804 27.1372 124.866 27.6556 124.99 28.1663C125.129 28.6615 125.338 29.1102 125.616 29.5126C125.895 29.9149 126.251 30.2399 126.684 30.4875C127.117 30.7351 127.628 30.8589 128.216 30.8589ZM137.403 20.6223H139.887V22.9435H139.933C140.011 22.6185 140.158 22.3013 140.374 21.9918C140.606 21.6823 140.877 21.4037 141.187 21.1561C141.512 20.8931 141.868 20.6842 142.254 20.5294C142.641 20.3747 143.036 20.2973 143.438 20.2973C143.748 20.2973 143.957 20.305 144.065 20.3205C144.189 20.336 144.313 20.3514 144.436 20.3669V22.9203C144.251 22.8893 144.057 22.8661 143.856 22.8506C143.67 22.8197 143.485 22.8042 143.299 22.8042C142.85 22.8042 142.425 22.8971 142.022 23.0828C141.635 23.253 141.295 23.5161 141.001 23.872C140.707 24.2124 140.475 24.638 140.305 25.1487C140.134 25.6593 140.049 26.2474 140.049 26.9128V32.623H137.403V20.6223ZM145.285 20.6223H147.281V17.0243H149.928V20.6223H152.318V22.5953H149.928V29.0019C149.928 29.2805 149.935 29.5203 149.951 29.7215C149.982 29.9227 150.036 30.0929 150.113 30.2322C150.206 30.3714 150.338 30.4798 150.508 30.5571C150.678 30.619 150.91 30.65 151.204 30.65C151.39 30.65 151.576 30.65 151.761 30.65C151.947 30.6345 152.133 30.6036 152.318 30.5571V32.5998C152.024 32.6308 151.738 32.6617 151.46 32.6927C151.181 32.7236 150.895 32.7391 150.601 32.7391C149.904 32.7391 149.339 32.6772 148.906 32.5534C148.488 32.4141 148.156 32.2207 147.908 31.9731C147.676 31.71 147.513 31.3851 147.421 30.9982C147.343 30.6113 147.297 30.1703 147.281 29.6751V22.5953H145.285V20.6223Z" fill="white"/>
<rect x="64.8516" y="4.33984" width="36.2362" height="36.2362" rx="1.93436" fill="#1B9358"/>
<path d="M71.9127 10.7962H77.2821L83.1199 19.8773L89.21 10.7962H94.255L85.7505 23.1926L94.8676 36.5259H89.3901L82.9757 26.6881L76.4532 36.5259H71.3001L80.4172 23.1926L71.9127 10.7962Z" fill="white"/>
</svg>
