<svg width="141" height="48" viewBox="0 0 141 48" fill="none" xmlns="http://www.w3.org/2000/svg">
<path d="M0.197175 16.4744H14.443V19.1363H8.84821V34.0723H5.76736V19.1363H0.197175V16.4744ZM25.2917 31.2379C25.2917 31.5829 25.3328 31.8294 25.4149 31.9773C25.5135 32.1252 25.6943 32.1991 25.9572 32.1991C26.0393 32.1991 26.1379 32.1991 26.2529 32.1991C26.3679 32.1991 26.4994 32.1827 26.6473 32.1498V34.0969C26.5487 34.1298 26.4172 34.1626 26.2529 34.1955C26.105 34.2448 25.9489 34.2859 25.7846 34.3187C25.6203 34.3516 25.456 34.3762 25.2917 34.3927C25.1274 34.4091 24.9877 34.4173 24.8727 34.4173C24.2976 34.4173 23.8211 34.3023 23.4432 34.0723C23.0653 33.8422 22.8188 33.4397 22.7038 32.8646C22.1451 33.4068 21.455 33.8012 20.6334 34.0476C19.8283 34.2941 19.0478 34.4173 18.292 34.4173C17.7169 34.4173 17.1665 34.3352 16.6407 34.1709C16.1149 34.023 15.6466 33.8012 15.2358 33.5054C14.8414 33.1932 14.521 32.8071 14.2746 32.347C14.0445 31.8705 13.9295 31.32 13.9295 30.6956C13.9295 29.907 14.0692 29.2661 14.3485 28.7732C14.6443 28.2803 15.0222 27.8941 15.4823 27.6148C15.9588 27.3355 16.4846 27.1383 17.0596 27.0233C17.6512 26.8918 18.2427 26.7932 18.8342 26.7275C19.3436 26.6289 19.8283 26.5632 20.2884 26.5303C20.7485 26.481 21.151 26.4071 21.4961 26.3085C21.8576 26.2099 22.1369 26.062 22.3341 25.8649C22.5477 25.6513 22.6545 25.3391 22.6545 24.9283C22.6545 24.5668 22.5641 24.271 22.3834 24.041C22.2191 23.811 22.0054 23.6384 21.7425 23.5234C21.4961 23.392 21.2167 23.3098 20.9046 23.277C20.5924 23.2277 20.2966 23.203 20.0173 23.203C19.2286 23.203 18.5795 23.3673 18.0702 23.696C17.5608 24.0246 17.2733 24.5339 17.2075 25.2241H14.3978C14.4471 24.4025 14.6443 23.7206 14.9893 23.1784C15.3344 22.6361 15.7698 22.2007 16.2956 21.8721C16.8378 21.5435 17.4458 21.3134 18.1195 21.182C18.7931 21.0505 19.4833 20.9848 20.1898 20.9848C20.8142 20.9848 21.4304 21.0505 22.0383 21.182C22.6463 21.3134 23.1885 21.527 23.665 21.8228C24.1579 22.1186 24.5523 22.5047 24.848 22.9812C25.1438 23.4413 25.2917 24.0081 25.2917 24.6818V31.2379ZM22.482 27.6887C22.0547 27.9681 21.5289 28.1406 20.9046 28.2063C20.2802 28.2556 19.6558 28.3378 19.0314 28.4528C18.7356 28.5021 18.4481 28.576 18.1688 28.6746C17.8894 28.7568 17.643 28.88 17.4294 29.0443C17.2157 29.1922 17.0432 29.3976 16.9118 29.6605C16.7967 29.907 16.7392 30.2109 16.7392 30.5724C16.7392 30.8846 16.8296 31.1475 17.0104 31.3611C17.1911 31.5747 17.4047 31.7472 17.6512 31.8787C17.9141 31.9937 18.1934 32.0759 18.4892 32.1252C18.8014 32.1745 19.0807 32.1991 19.3272 32.1991C19.6393 32.1991 19.9762 32.158 20.3377 32.0759C20.6992 31.9937 21.036 31.8541 21.3482 31.6569C21.6768 31.4597 21.9479 31.2132 22.1615 30.9175C22.3751 30.6053 22.482 30.2274 22.482 29.7837V27.6887ZM29.3748 16.4744H32.1845V22.9812H32.2338C32.431 22.669 32.6692 22.3897 32.9486 22.1432C33.2279 21.8967 33.5319 21.6913 33.8605 21.527C34.2056 21.3463 34.5588 21.2148 34.9203 21.1327C35.2982 21.0341 35.6679 20.9848 36.0294 20.9848C37.0317 20.9848 37.9026 21.1655 38.642 21.527C39.3978 21.8721 40.0222 22.3568 40.5151 22.9812C41.0081 23.5891 41.3778 24.3039 41.6243 25.1255C41.8707 25.947 41.994 26.8261 41.994 27.7627C41.994 28.6171 41.8789 29.4469 41.6489 30.252C41.4353 31.0571 41.0985 31.7719 40.6384 32.3963C40.1947 33.0042 39.6279 33.4972 38.9378 33.8751C38.2476 34.2366 37.4343 34.4173 36.4977 34.4173C36.0705 34.4173 35.6351 34.3845 35.1914 34.3187C34.7642 34.2694 34.3534 34.1626 33.9591 33.9983C33.5647 33.834 33.2033 33.6204 32.8746 33.3575C32.5624 33.0946 32.2995 32.7496 32.0859 32.3223H32.0366V34.0723H29.3748V16.4744ZM39.1842 27.7134C39.1842 27.1383 39.1103 26.5796 38.9624 26.0374C38.8145 25.4952 38.5927 25.0187 38.2969 24.6079C38.0012 24.1807 37.6315 23.8438 37.1878 23.5974C36.7442 23.3345 36.2348 23.203 35.6597 23.203C34.4767 23.203 33.5812 23.6138 32.9732 24.4354C32.3817 25.2569 32.0859 26.3496 32.0859 27.7134C32.0859 28.3542 32.1599 28.9539 32.3078 29.5126C32.4721 30.0548 32.7103 30.5231 33.0225 30.9175C33.3347 31.3118 33.7044 31.624 34.1316 31.8541C34.5753 32.0841 35.0846 32.1991 35.6597 32.1991C36.3005 32.1991 36.8428 32.0677 37.2864 31.8048C37.7301 31.5419 38.0915 31.205 38.3709 30.7942C38.6666 30.367 38.872 29.8905 38.987 29.3647C39.1185 28.8225 39.1842 28.272 39.1842 27.7134Z" fill="#062013"/>
<path d="M91.3976 16.4744H99.1613C100.41 16.4744 101.429 16.6552 102.218 17.0167C103.006 17.3781 103.614 17.83 104.041 18.3722C104.469 18.9145 104.756 19.506 104.904 20.1468C105.068 20.7876 105.151 21.3791 105.151 21.9214C105.151 22.4636 105.068 23.0551 104.904 23.696C104.756 24.3203 104.469 24.9036 104.041 25.4459C103.614 25.9881 103.006 26.44 102.218 26.8015C101.429 27.1465 100.41 27.319 99.1613 27.319H94.4784V34.0723H91.3976V16.4744ZM94.4784 24.8051H98.9888C99.3339 24.8051 99.6871 24.7558 100.049 24.6572C100.41 24.5586 100.739 24.4025 101.034 24.1889C101.347 23.9589 101.593 23.6631 101.774 23.3016C101.971 22.9237 102.07 22.4554 102.07 21.8967C102.07 21.3216 101.987 20.8451 101.823 20.4672C101.659 20.0893 101.437 19.7935 101.158 19.5799C100.878 19.3499 100.558 19.1938 100.196 19.1116C99.835 19.0295 99.4489 18.9884 99.0381 18.9884H94.4784V24.8051ZM114.27 34.4173C113.251 34.4173 112.339 34.253 111.534 33.9244C110.745 33.5793 110.071 33.111 109.513 32.5195C108.971 31.928 108.552 31.2214 108.256 30.3999C107.976 29.5783 107.837 28.6746 107.837 27.6887C107.837 26.7193 107.976 25.8238 108.256 25.0022C108.552 24.1807 108.971 23.4741 109.513 22.8826C110.071 22.2911 110.745 21.831 111.534 21.5024C112.339 21.1573 113.251 20.9848 114.27 20.9848C115.288 20.9848 116.192 21.1573 116.981 21.5024C117.786 21.831 118.46 22.2911 119.002 22.8826C119.56 23.4741 119.979 24.1807 120.259 25.0022C120.555 25.8238 120.702 26.7193 120.702 27.6887C120.702 28.6746 120.555 29.5783 120.259 30.3999C119.979 31.2214 119.56 31.928 119.002 32.5195C118.46 33.111 117.786 33.5793 116.981 33.9244C116.192 34.253 115.288 34.4173 114.27 34.4173ZM114.27 32.1991C114.894 32.1991 115.436 32.0677 115.896 31.8048C116.356 31.5419 116.734 31.1968 117.03 30.7696C117.326 30.3424 117.539 29.8659 117.671 29.3401C117.819 28.7978 117.893 28.2474 117.893 27.6887C117.893 27.1465 117.819 26.6043 117.671 26.062C117.539 25.5198 117.326 25.0433 117.03 24.6325C116.734 24.2053 116.356 23.8603 115.896 23.5974C115.436 23.3345 114.894 23.203 114.27 23.203C113.645 23.203 113.103 23.3345 112.643 23.5974C112.183 23.8603 111.805 24.2053 111.509 24.6325C111.213 25.0433 110.992 25.5198 110.844 26.062C110.712 26.6043 110.647 27.1465 110.647 27.6887C110.647 28.2474 110.712 28.7978 110.844 29.3401C110.992 29.8659 111.213 30.3424 111.509 30.7696C111.805 31.1968 112.183 31.5419 112.643 31.8048C113.103 32.0677 113.645 32.1991 114.27 32.1991ZM124.024 21.3299H126.661V23.7945H126.711C126.793 23.4495 126.949 23.1126 127.179 22.784C127.425 22.4554 127.713 22.1596 128.042 21.8967C128.387 21.6174 128.765 21.3956 129.175 21.2313C129.586 21.067 130.005 20.9848 130.432 20.9848C130.761 20.9848 130.983 20.993 131.098 21.0094C131.229 21.0259 131.361 21.0423 131.492 21.0587V23.7699C131.295 23.737 131.09 23.7124 130.876 23.696C130.679 23.6631 130.482 23.6467 130.284 23.6467C129.808 23.6467 129.356 23.7452 128.929 23.9424C128.518 24.1232 128.157 24.4025 127.844 24.7804C127.532 25.1419 127.286 25.5938 127.105 26.136C126.924 26.6782 126.834 27.3026 126.834 28.0091V34.0723H124.024V21.3299ZM132.393 21.3299H134.513V17.5096H137.323V21.3299H139.861V23.4248H137.323V30.2274C137.323 30.5231 137.331 30.7778 137.347 30.9914C137.38 31.205 137.438 31.3858 137.52 31.5336C137.618 31.6815 137.758 31.7965 137.939 31.8787C138.12 31.9444 138.366 31.9773 138.678 31.9773C138.875 31.9773 139.073 31.9773 139.27 31.9773C139.467 31.9609 139.664 31.928 139.861 31.8787V34.0476C139.549 34.0805 139.245 34.1133 138.949 34.1462C138.654 34.1791 138.35 34.1955 138.037 34.1955C137.298 34.1955 136.698 34.1298 136.238 33.9983C135.795 33.8504 135.441 33.6451 135.178 33.3822C134.932 33.1028 134.759 32.7578 134.661 32.347C134.579 31.9362 134.529 31.4679 134.513 30.9421V23.4248H132.393V21.3299Z" fill="#062013"/>
<rect x="46.9893" y="4.46289" width="38.4755" height="38.4755" rx="2.0539" fill="#1B9358"/>
<path d="M54.4869 11.0934H60.188L66.3866 20.7356L72.853 11.0934H78.2098L69.1798 24.2558L78.8603 38.4131H73.0444L66.2336 27.9673L59.308 38.4131H53.8364L63.5169 24.2558L54.4869 11.0934Z" fill="white"/>
</svg>
