<svg width="153" height="45" viewBox="0 0 153 45" fill="none" xmlns="http://www.w3.org/2000/svg">
<path d="M0.185699 16.1725H13.6024V18.6794H8.33324V32.7461H5.43169V18.6794H0.185699V16.1725ZM23.8197 30.0767C23.8197 30.4016 23.8584 30.6338 23.9357 30.773C24.0286 30.9123 24.1988 30.982 24.4464 30.982C24.5238 30.982 24.6166 30.982 24.725 30.982C24.8333 30.982 24.9571 30.9665 25.0964 30.9355V32.7693C25.0035 32.8003 24.8797 32.8312 24.725 32.8622C24.5857 32.9086 24.4387 32.9473 24.2839 32.9782C24.1292 33.0092 23.9744 33.0324 23.8197 33.0479C23.6649 33.0633 23.5334 33.0711 23.4251 33.0711C22.8835 33.0711 22.4347 32.9627 22.0788 32.7461C21.7228 32.5294 21.4907 32.1503 21.3824 31.6087C20.8562 32.1194 20.2063 32.4908 19.4326 32.7229C18.6743 32.955 17.9392 33.0711 17.2274 33.0711C16.6858 33.0711 16.1673 32.9937 15.6721 32.8389C15.177 32.6997 14.7359 32.4908 14.349 32.2122C13.9776 31.9182 13.6759 31.5545 13.4438 31.1212C13.2271 30.6725 13.1188 30.154 13.1188 29.566C13.1188 28.8232 13.2503 28.2197 13.5134 27.7554C13.7919 27.2912 14.1479 26.9275 14.5812 26.6645C15.0299 26.4014 15.5251 26.2157 16.0668 26.1074C16.6239 25.9836 17.181 25.8907 17.738 25.8288C18.2178 25.736 18.6743 25.6741 19.1076 25.6431C19.5409 25.5967 19.92 25.5271 20.245 25.4342C20.5854 25.3414 20.8485 25.2021 21.0342 25.0164C21.2354 24.8152 21.336 24.5212 21.336 24.1343C21.336 23.7939 21.2509 23.5153 21.0806 23.2987C20.9259 23.082 20.7247 22.9195 20.4771 22.8112C20.245 22.6874 19.9819 22.61 19.6879 22.5791C19.3939 22.5327 19.1153 22.5094 18.8522 22.5094C18.1094 22.5094 17.4982 22.6642 17.0185 22.9737C16.5387 23.2832 16.2679 23.7629 16.206 24.4129H13.5598C13.6062 23.6391 13.7919 22.9969 14.1169 22.4862C14.4419 21.9756 14.852 21.5655 15.3472 21.256C15.8578 20.9465 16.4304 20.7298 17.0649 20.606C17.6994 20.4822 18.3493 20.4203 19.0147 20.4203C19.6028 20.4203 20.1831 20.4822 20.7557 20.606C21.3282 20.7298 21.8389 20.931 22.2877 21.2096C22.7519 21.4881 23.1233 21.8518 23.4019 22.3005C23.6804 22.7338 23.8197 23.2677 23.8197 23.9022V30.0767ZM21.1735 26.7341C20.7711 26.9972 20.2759 27.1597 19.6879 27.2216C19.0998 27.268 18.5118 27.3454 17.9237 27.4537C17.6452 27.5001 17.3744 27.5697 17.1113 27.6626C16.8482 27.74 16.6161 27.856 16.4149 28.0108C16.2138 28.15 16.0513 28.3435 15.9275 28.5911C15.8192 28.8232 15.765 29.1095 15.765 29.4499C15.765 29.744 15.8501 29.9916 16.0203 30.1927C16.1906 30.3939 16.3917 30.5564 16.6239 30.6802C16.8715 30.7885 17.1345 30.8659 17.4131 30.9123C17.7071 30.9587 17.9702 30.982 18.2023 30.982C18.4963 30.982 18.8136 30.9433 19.154 30.8659C19.4945 30.7885 19.8117 30.657 20.1057 30.4713C20.4152 30.2856 20.6705 30.0535 20.8717 29.7749C21.0729 29.4809 21.1735 29.125 21.1735 28.7071V26.7341ZM27.6651 16.1725H30.3113V22.3005H30.3578C30.5435 22.0065 30.7679 21.7434 31.0309 21.5113C31.294 21.2792 31.5803 21.0858 31.8898 20.931C32.2148 20.7608 32.5475 20.637 32.8879 20.5596C33.2438 20.4668 33.592 20.4203 33.9325 20.4203C34.8764 20.4203 35.6966 20.5906 36.393 20.931C37.1048 21.256 37.6929 21.7125 38.1571 22.3005C38.6214 22.8731 38.9696 23.5463 39.2017 24.32C39.4338 25.0938 39.5499 25.9217 39.5499 26.8037C39.5499 27.6084 39.4415 28.3899 39.2249 29.1482C39.0237 29.9064 38.7065 30.5796 38.2732 31.1677C37.8554 31.7402 37.3215 32.2045 36.6715 32.5604C36.0216 32.9008 35.2556 33.0711 34.3735 33.0711C33.9712 33.0711 33.5611 33.0401 33.1433 32.9782C32.7409 32.9318 32.354 32.8312 31.9826 32.6765C31.6112 32.5217 31.2708 32.3205 30.9613 32.0729C30.6673 31.8253 30.4197 31.5004 30.2185 31.098H30.1721V32.7461H27.6651V16.1725ZM36.9037 26.7573C36.9037 26.2157 36.834 25.6895 36.6947 25.1789C36.5555 24.6682 36.3466 24.2194 36.068 23.8325C35.7895 23.4302 35.4413 23.113 35.0235 22.8808C34.6056 22.6332 34.1259 22.5094 33.5843 22.5094C32.4701 22.5094 31.6267 22.8963 31.0541 23.6701C30.497 24.4438 30.2185 25.4729 30.2185 26.7573C30.2185 27.3608 30.2881 27.9257 30.4274 28.4518C30.5822 28.9625 30.8065 29.4035 31.1006 29.7749C31.3946 30.1463 31.7428 30.4403 32.1451 30.657C32.5629 30.8736 33.0427 30.982 33.5843 30.982C34.1878 30.982 34.6985 30.8582 35.1163 30.6106C35.5341 30.363 35.8746 30.0457 36.1377 29.6589C36.4162 29.2565 36.6096 28.8077 36.718 28.3125C36.8418 27.8019 36.9037 27.2835 36.9037 26.7573ZM42.784 16.1725H45.4302V32.7461H42.784V16.1725ZM57.4823 25.6895C57.4514 25.2717 57.3585 24.8694 57.2038 24.4825C57.0645 24.0956 56.8633 23.7629 56.6002 23.4844C56.3527 23.1903 56.0432 22.9582 55.6718 22.788C55.3158 22.6023 54.9135 22.5094 54.4647 22.5094C54.0005 22.5094 53.5749 22.5946 53.188 22.7648C52.8166 22.9195 52.4917 23.1439 52.2131 23.4379C51.95 23.7165 51.7334 24.0492 51.5632 24.4361C51.4084 24.8229 51.3233 25.2408 51.3078 25.6895H57.4823ZM51.3078 27.4305C51.3078 27.8947 51.3697 28.3435 51.4935 28.7768C51.6328 29.2101 51.834 29.5892 52.0971 29.9142C52.3601 30.2392 52.6928 30.5022 53.0952 30.7034C53.4975 30.8891 53.9773 30.982 54.5343 30.982C55.3081 30.982 55.9271 30.8195 56.3913 30.4945C56.8711 30.154 57.227 29.6511 57.4591 28.9857H59.966C59.8268 29.6356 59.5869 30.2159 59.2465 30.7266C58.906 31.2373 58.4959 31.6706 58.0162 32.0265C57.5365 32.367 56.9949 32.6223 56.3913 32.7925C55.8033 32.9782 55.1843 33.0711 54.5343 33.0711C53.5904 33.0711 52.7547 32.9163 52.0274 32.6068C51.3001 32.2973 50.6811 31.864 50.1704 31.3069C49.6752 30.7498 49.2961 30.0844 49.033 29.3107C48.7854 28.5369 48.6616 27.6858 48.6616 26.7573C48.6616 25.9062 48.7932 25.1015 49.0562 24.3432C49.3348 23.5695 49.7217 22.8963 50.2169 22.3237C50.7275 21.7357 51.3388 21.2715 52.0506 20.931C52.7625 20.5906 53.5672 20.4203 54.4647 20.4203C55.4087 20.4203 56.2521 20.6215 56.9949 21.0239C57.7531 21.4107 58.3799 21.9291 58.8751 22.5791C59.3703 23.229 59.7262 23.9796 59.9428 24.8307C60.175 25.6663 60.2369 26.5329 60.1285 27.4305H51.3078Z" fill="#062013"/>
<path d="M106.675 16.1725H113.987C115.163 16.1725 116.123 16.3427 116.865 16.6831C117.608 17.0236 118.181 17.4492 118.583 17.9598C118.986 18.4705 119.256 19.0276 119.396 19.6311C119.55 20.2346 119.628 20.7917 119.628 21.3024C119.628 21.8131 119.55 22.3702 119.396 22.9737C119.256 23.5617 118.986 24.1111 118.583 24.6218C118.181 25.1324 117.608 25.558 116.865 25.8984C116.123 26.2234 115.163 26.3859 113.987 26.3859H109.577V32.7461H106.675V16.1725ZM109.577 24.0182H113.825C114.15 24.0182 114.482 23.9718 114.823 23.879C115.163 23.7861 115.473 23.6391 115.751 23.4379C116.045 23.2213 116.277 22.9427 116.448 22.6023C116.633 22.2464 116.726 21.8053 116.726 21.2792C116.726 20.7376 116.649 20.2888 116.494 19.9329C116.339 19.5769 116.13 19.2984 115.867 19.0972C115.604 18.8806 115.303 18.7336 114.962 18.6562C114.622 18.5788 114.258 18.5401 113.871 18.5401H109.577V24.0182ZM128.216 33.0711C127.257 33.0711 126.398 32.9163 125.64 32.6068C124.897 32.2818 124.262 31.8408 123.736 31.2837C123.225 30.7266 122.831 30.0612 122.552 29.2875C122.289 28.5137 122.158 27.6626 122.158 26.7341C122.158 25.8211 122.289 24.9777 122.552 24.2039C122.831 23.4302 123.225 22.7648 123.736 22.2077C124.262 21.6506 124.897 21.2173 125.64 20.9078C126.398 20.5828 127.257 20.4203 128.216 20.4203C129.176 20.4203 130.027 20.5828 130.77 20.9078C131.528 21.2173 132.162 21.6506 132.673 22.2077C133.199 22.7648 133.594 23.4302 133.857 24.2039C134.135 24.9777 134.275 25.8211 134.275 26.7341C134.275 27.6626 134.135 28.5137 133.857 29.2875C133.594 30.0612 133.199 30.7266 132.673 31.2837C132.162 31.8408 131.528 32.2818 130.77 32.6068C130.027 32.9163 129.176 33.0711 128.216 33.0711ZM128.216 30.982C128.804 30.982 129.315 30.8582 129.748 30.6106C130.181 30.363 130.537 30.038 130.816 29.6356C131.094 29.2333 131.296 28.7845 131.419 28.2893C131.559 27.7786 131.628 27.2602 131.628 26.7341C131.628 26.2234 131.559 25.7127 131.419 25.2021C131.296 24.6914 131.094 24.2426 130.816 23.8558C130.537 23.4534 130.181 23.1284 129.748 22.8808C129.315 22.6332 128.804 22.5094 128.216 22.5094C127.628 22.5094 127.117 22.6332 126.684 22.8808C126.251 23.1284 125.895 23.4534 125.616 23.8558C125.338 24.2426 125.129 24.6914 124.99 25.2021C124.866 25.7127 124.804 26.2234 124.804 26.7341C124.804 27.2602 124.866 27.7786 124.99 28.2893C125.129 28.7845 125.338 29.2333 125.616 29.6356C125.895 30.038 126.251 30.363 126.684 30.6106C127.117 30.8582 127.628 30.982 128.216 30.982ZM137.403 20.7453H139.887V23.0665H139.933C140.011 22.7416 140.158 22.4243 140.374 22.1148C140.606 21.8053 140.877 21.5268 141.187 21.2792C141.512 21.0161 141.868 20.8072 142.254 20.6525C142.641 20.4977 143.036 20.4203 143.438 20.4203C143.748 20.4203 143.957 20.4281 144.065 20.4435C144.189 20.459 144.313 20.4745 144.436 20.49V23.0433C144.251 23.0124 144.057 22.9892 143.856 22.9737C143.67 22.9427 143.485 22.9273 143.299 22.9273C142.85 22.9273 142.425 23.0201 142.022 23.2058C141.635 23.376 141.295 23.6391 141.001 23.995C140.707 24.3355 140.475 24.761 140.305 25.2717C140.134 25.7824 140.049 26.3704 140.049 27.0359V32.7461H137.403V20.7453ZM145.285 20.7453H147.281V17.1474H149.928V20.7453H152.318V22.7184H149.928V29.125C149.928 29.4035 149.935 29.6434 149.951 29.8445C149.982 30.0457 150.036 30.2159 150.113 30.3552C150.206 30.4945 150.338 30.6028 150.508 30.6802C150.678 30.7421 150.91 30.773 151.204 30.773C151.39 30.773 151.576 30.773 151.761 30.773C151.947 30.7576 152.133 30.7266 152.318 30.6802V32.7229C152.024 32.7538 151.738 32.7848 151.46 32.8157C151.181 32.8467 150.895 32.8622 150.601 32.8622C149.904 32.8622 149.339 32.8003 148.906 32.6765C148.488 32.5372 148.156 32.3437 147.908 32.0961C147.676 31.8331 147.513 31.5081 147.421 31.1212C147.343 30.7344 147.297 30.2933 147.281 29.7981V22.7184H145.285V20.7453Z" fill="#062013"/>
<rect x="64.8516" y="4.46289" width="36.2362" height="36.2362" rx="1.93436" fill="#1B9358"/>
<path d="M71.9127 10.9188H77.2821L83.1199 19.9998L89.21 10.9188H94.255L85.7505 23.3151L94.8676 36.6484H89.3901L82.9757 26.8106L76.4532 36.6484H71.3001L80.4172 23.3151L71.9127 10.9188Z" fill="white"/>
</svg>
