<svg width="153" height="45" viewBox="0 0 153 45" fill="none" xmlns="http://www.w3.org/2000/svg">
<g clip-path="url(#clip0_346_18)">
<path d="M0.185669 16.1726H13.6024V18.6795H8.33321V32.7462H5.43166V18.6795H0.185669V16.1726ZM23.8197 30.0768C23.8197 30.4017 23.8584 30.6339 23.9357 30.7731C24.0286 30.9124 24.1988 30.9821 24.4464 30.9821C24.5238 30.9821 24.6166 30.9821 24.725 30.9821C24.8333 30.9821 24.9571 30.9666 25.0964 30.9356V32.7694C25.0035 32.8004 24.8797 32.8313 24.725 32.8623C24.5857 32.9087 24.4387 32.9474 24.2839 32.9783C24.1292 33.0093 23.9744 33.0325 23.8197 33.048C23.6649 33.0634 23.5334 33.0712 23.4251 33.0712C22.8835 33.0712 22.4347 32.9628 22.0788 32.7462C21.7228 32.5295 21.4907 32.1504 21.3824 31.6088C20.8562 32.1195 20.2063 32.4909 19.4326 32.723C18.6743 32.9551 17.9392 33.0712 17.2274 33.0712C16.6858 33.0712 16.1673 32.9938 15.6721 32.839C15.177 32.6998 14.7359 32.4909 14.349 32.2123C13.9776 31.9183 13.6759 31.5546 13.4438 31.1213C13.2271 30.6726 13.1188 30.1541 13.1188 29.5661C13.1188 28.8233 13.2503 28.2198 13.5134 27.7555C13.7919 27.2913 14.1479 26.9276 14.5812 26.6646C15.0299 26.4015 15.5251 26.2158 16.0668 26.1075C16.6239 25.9837 17.181 25.8908 17.738 25.8289C18.2178 25.7361 18.6743 25.6742 19.1076 25.6432C19.5409 25.5968 19.92 25.5272 20.245 25.4343C20.5854 25.3415 20.8485 25.2022 21.0342 25.0165C21.2354 24.8153 21.336 24.5213 21.336 24.1344C21.336 23.794 21.2509 23.5154 21.0806 23.2988C20.9259 23.0821 20.7247 22.9196 20.4771 22.8113C20.245 22.6875 19.9819 22.6101 19.6879 22.5792C19.3939 22.5328 19.1153 22.5095 18.8522 22.5095C18.1094 22.5095 17.4982 22.6643 17.0185 22.9738C16.5387 23.2833 16.2679 23.763 16.206 24.413H13.5598C13.6062 23.6392 13.7919 22.997 14.1169 22.4863C14.4419 21.9757 14.852 21.5656 15.3472 21.2561C15.8578 20.9466 16.4304 20.7299 17.0649 20.6061C17.6994 20.4823 18.3493 20.4204 19.0147 20.4204C19.6028 20.4204 20.1831 20.4823 20.7557 20.6061C21.3282 20.7299 21.8389 20.9311 22.2877 21.2097C22.7519 21.4882 23.1233 21.8519 23.4019 22.3006C23.6804 22.7339 23.8197 23.2678 23.8197 23.9023V30.0768ZM21.1735 26.7342C20.7711 26.9973 20.2759 27.1598 19.6879 27.2217C19.0998 27.2681 18.5118 27.3455 17.9237 27.4538C17.6452 27.5002 17.3744 27.5698 17.1113 27.6627C16.8482 27.7401 16.6161 27.8561 16.4149 28.0109C16.2138 28.1501 16.0513 28.3436 15.9275 28.5912C15.8192 28.8233 15.765 29.1096 15.765 29.45C15.765 29.7441 15.8501 29.9917 16.0203 30.1928C16.1906 30.394 16.3917 30.5565 16.6239 30.6803C16.8715 30.7886 17.1345 30.866 17.4131 30.9124C17.7071 30.9588 17.9702 30.9821 18.2023 30.9821C18.4963 30.9821 18.8136 30.9434 19.154 30.866C19.4945 30.7886 19.8117 30.6571 20.1057 30.4714C20.4152 30.2857 20.6705 30.0536 20.8717 29.775C21.0729 29.481 21.1735 29.1251 21.1735 28.7072V26.7342ZM27.6651 16.1726H30.3113V22.3006H30.3578C30.5435 22.0066 30.7679 21.7435 31.0309 21.5114C31.294 21.2793 31.5803 21.0859 31.8898 20.9311C32.2148 20.7609 32.5475 20.6371 32.8879 20.5597C33.2438 20.4669 33.592 20.4204 33.9325 20.4204C34.8764 20.4204 35.6966 20.5907 36.393 20.9311C37.1048 21.2561 37.6929 21.7126 38.1571 22.3006C38.6214 22.8732 38.9696 23.5464 39.2017 24.3201C39.4338 25.0939 39.5499 25.9218 39.5499 26.8038C39.5499 27.6085 39.4415 28.39 39.2249 29.1483C39.0237 29.9065 38.7065 30.5797 38.2732 31.1678C37.8554 31.7403 37.3215 32.2046 36.6715 32.5605C36.0216 32.9009 35.2556 33.0712 34.3735 33.0712C33.9712 33.0712 33.5611 33.0402 33.1433 32.9783C32.7409 32.9319 32.354 32.8313 31.9826 32.6766C31.6112 32.5218 31.2708 32.3206 30.9613 32.073C30.6673 31.8254 30.4197 31.5005 30.2185 31.0981H30.1721V32.7462H27.6651V16.1726ZM36.9037 26.7574C36.9037 26.2158 36.834 25.6896 36.6947 25.179C36.5555 24.6683 36.3466 24.2195 36.068 23.8326C35.7895 23.4303 35.4413 23.1131 35.0235 22.8809C34.6056 22.6333 34.1259 22.5095 33.5843 22.5095C32.4701 22.5095 31.6267 22.8964 31.0541 23.6702C30.497 24.4439 30.2185 25.473 30.2185 26.7574C30.2185 27.3609 30.2881 27.9258 30.4274 28.4519C30.5822 28.9626 30.8065 29.4036 31.1006 29.775C31.3946 30.1464 31.7428 30.4404 32.1451 30.6571C32.5629 30.8737 33.0427 30.9821 33.5843 30.9821C34.1878 30.9821 34.6985 30.8583 35.1163 30.6107C35.5341 30.3631 35.8746 30.0458 36.1377 29.659C36.4162 29.2566 36.6096 28.8078 36.718 28.3126C36.8418 27.802 36.9037 27.2836 36.9037 26.7574ZM42.784 16.1726H45.4302V32.7462H42.784V16.1726ZM57.4823 25.6896C57.4514 25.2718 57.3585 24.8695 57.2038 24.4826C57.0645 24.0957 56.8633 23.763 56.6002 23.4845C56.3527 23.1904 56.0432 22.9583 55.6718 22.7881C55.3158 22.6024 54.9135 22.5095 54.4647 22.5095C54.0005 22.5095 53.5749 22.5947 53.188 22.7649C52.8166 22.9196 52.4917 23.144 52.2131 23.438C51.95 23.7166 51.7334 24.0493 51.5632 24.4362C51.4084 24.823 51.3233 25.2409 51.3078 25.6896H57.4823ZM51.3078 27.4306C51.3078 27.8948 51.3697 28.3436 51.4935 28.7769C51.6328 29.2102 51.834 29.5893 52.0971 29.9143C52.3601 30.2393 52.6928 30.5023 53.0952 30.7035C53.4975 30.8892 53.9773 30.9821 54.5343 30.9821C55.3081 30.9821 55.9271 30.8196 56.3913 30.4946C56.8711 30.1541 57.227 29.6512 57.4591 28.9858H59.966C59.8268 29.6357 59.5869 30.216 59.2465 30.7267C58.906 31.2374 58.4959 31.6707 58.0162 32.0266C57.5365 32.3671 56.9949 32.6224 56.3913 32.7926C55.8033 32.9783 55.1843 33.0712 54.5343 33.0712C53.5904 33.0712 52.7547 32.9164 52.0274 32.6069C51.3001 32.2974 50.6811 31.8641 50.1704 31.307C49.6752 30.7499 49.2961 30.0845 49.033 29.3108C48.7854 28.537 48.6616 27.6859 48.6616 26.7574C48.6616 25.9063 48.7932 25.1016 49.0562 24.3433C49.3348 23.5696 49.7217 22.8964 50.2169 22.3238C50.7275 21.7358 51.3388 21.2716 52.0506 20.9311C52.7625 20.5907 53.5672 20.4204 54.4647 20.4204C55.4087 20.4204 56.2521 20.6216 56.9949 21.024C57.7531 21.4108 58.3799 21.9292 58.8751 22.5792C59.3703 23.2291 59.7262 23.9797 59.9428 24.8308C60.175 25.6664 60.2369 26.533 60.1285 27.4306H51.3078Z" fill="#062013"/>
<path d="M106.675 16.1726H113.987C115.163 16.1726 116.123 16.3428 116.865 16.6832C117.608 17.0237 118.181 17.4493 118.583 17.9599C118.986 18.4706 119.256 19.0277 119.396 19.6312C119.55 20.2347 119.628 20.7918 119.628 21.3025C119.628 21.8132 119.55 22.3703 119.396 22.9738C119.256 23.5618 118.986 24.1112 118.583 24.6219C118.181 25.1325 117.608 25.5581 116.865 25.8985C116.123 26.2235 115.163 26.386 113.987 26.386H109.577V32.7462H106.675V16.1726ZM109.577 24.0183H113.825C114.15 24.0183 114.482 23.9719 114.823 23.8791C115.163 23.7862 115.473 23.6392 115.751 23.438C116.045 23.2214 116.277 22.9428 116.448 22.6024C116.633 22.2465 116.726 21.8054 116.726 21.2793C116.726 20.7377 116.649 20.2889 116.494 19.933C116.339 19.577 116.13 19.2985 115.867 19.0973C115.604 18.8807 115.303 18.7337 114.962 18.6563C114.622 18.5789 114.258 18.5402 113.871 18.5402H109.577V24.0183ZM128.216 33.0712C127.257 33.0712 126.398 32.9164 125.64 32.6069C124.897 32.2819 124.262 31.8409 123.736 31.2838C123.225 30.7267 122.831 30.0613 122.552 29.2876C122.289 28.5138 122.158 27.6627 122.158 26.7342C122.158 25.8212 122.289 24.9778 122.552 24.204C122.831 23.4303 123.225 22.7649 123.736 22.2078C124.262 21.6507 124.897 21.2174 125.64 20.9079C126.398 20.5829 127.257 20.4204 128.216 20.4204C129.176 20.4204 130.027 20.5829 130.77 20.9079C131.528 21.2174 132.162 21.6507 132.673 22.2078C133.199 22.7649 133.594 23.4303 133.857 24.204C134.135 24.9778 134.275 25.8212 134.275 26.7342C134.275 27.6627 134.135 28.5138 133.857 29.2876C133.594 30.0613 133.199 30.7267 132.673 31.2838C132.162 31.8409 131.528 32.2819 130.77 32.6069C130.027 32.9164 129.176 33.0712 128.216 33.0712ZM128.216 30.9821C128.804 30.9821 129.315 30.8583 129.748 30.6107C130.181 30.3631 130.537 30.0381 130.816 29.6357C131.094 29.2334 131.296 28.7846 131.419 28.2894C131.559 27.7787 131.628 27.2603 131.628 26.7342C131.628 26.2235 131.559 25.7128 131.419 25.2022C131.296 24.6915 131.094 24.2427 130.816 23.8559C130.537 23.4535 130.181 23.1285 129.748 22.8809C129.315 22.6333 128.804 22.5095 128.216 22.5095C127.628 22.5095 127.117 22.6333 126.684 22.8809C126.251 23.1285 125.895 23.4535 125.616 23.8559C125.338 24.2427 125.129 24.6915 124.99 25.2022C124.866 25.7128 124.804 26.2235 124.804 26.7342C124.804 27.2603 124.866 27.7787 124.99 28.2894C125.129 28.7846 125.338 29.2334 125.616 29.6357C125.895 30.0381 126.251 30.3631 126.684 30.6107C127.117 30.8583 127.628 30.9821 128.216 30.9821ZM137.403 20.7454H139.887V23.0666H139.933C140.011 22.7417 140.158 22.4244 140.374 22.1149C140.606 21.8054 140.877 21.5269 141.187 21.2793C141.512 21.0162 141.868 20.8073 142.254 20.6526C142.641 20.4978 143.036 20.4204 143.438 20.4204C143.748 20.4204 143.957 20.4282 144.065 20.4436C144.189 20.4591 144.313 20.4746 144.436 20.4901V23.0434C144.251 23.0125 144.057 22.9893 143.856 22.9738C143.67 22.9428 143.485 22.9274 143.299 22.9274C142.85 22.9274 142.425 23.0202 142.022 23.2059C141.635 23.3761 141.295 23.6392 141.001 23.9951C140.707 24.3356 140.475 24.7611 140.305 25.2718C140.134 25.7825 140.049 26.3705 140.049 27.036V32.7462H137.403V20.7454ZM145.285 20.7454H147.281V17.1475H149.928V20.7454H152.318V22.7185H149.928V29.1251C149.928 29.4036 149.935 29.6435 149.951 29.8446C149.982 30.0458 150.036 30.216 150.113 30.3553C150.206 30.4946 150.338 30.6029 150.508 30.6803C150.678 30.7422 150.91 30.7731 151.204 30.7731C151.39 30.7731 151.576 30.7731 151.761 30.7731C151.947 30.7577 152.133 30.7267 152.318 30.6803V32.723C152.024 32.7539 151.738 32.7849 151.46 32.8158C151.181 32.8468 150.895 32.8623 150.601 32.8623C149.904 32.8623 149.339 32.8004 148.906 32.6766C148.488 32.5373 148.156 32.3438 147.908 32.0962C147.676 31.8332 147.513 31.5082 147.421 31.1213C147.343 30.7345 147.297 30.2934 147.281 29.7982V22.7185H145.285V20.7454Z" fill="#062013"/>
<path d="M99.1534 4.46289H66.7859C65.7176 4.46289 64.8516 5.32893 64.8516 6.39725V38.7647C64.8516 39.833 65.7176 40.6991 66.7859 40.6991H99.1534C100.222 40.6991 101.088 39.833 101.088 38.7647V6.39725C101.088 5.32893 100.222 4.46289 99.1534 4.46289Z" fill="#1B9358"/>
<path d="M75.0908 9.96029H79.0621L83.38 16.6769L87.8844 9.96029H91.6158L85.3256 19.129L92.0689 28.9907H88.0176L83.2733 21.7144L78.4491 28.9907H74.6377L81.381 19.129L75.0908 9.96029Z" fill="white"/>
<path fill-rule="evenodd" clip-rule="evenodd" d="M87.9154 33.516L82.883 37.1618L77.8506 33.516H80.7617V28.5903H85.0043V33.5154L87.9154 33.516Z" fill="white"/>
</g>
<defs>
<clipPath id="clip0_346_18">
<rect width="153" height="45" fill="white"/>
</clipPath>
</defs>
</svg>
