<svg width="153" height="45" viewBox="0 0 153 45" fill="none" xmlns="http://www.w3.org/2000/svg">
<g clip-path="url(#clip0_346_23)">
<path d="M0.185669 16.0493H13.6024V18.5563H8.33321V32.6229H5.43166V18.5563H0.185669V16.0493ZM23.8197 29.9535C23.8197 30.2785 23.8584 30.5106 23.9357 30.6499C24.0286 30.7892 24.1988 30.8588 24.4464 30.8588C24.5238 30.8588 24.6166 30.8588 24.725 30.8588C24.8333 30.8588 24.9571 30.8433 25.0964 30.8124V32.6462C25.0035 32.6771 24.8797 32.7081 24.725 32.739C24.5857 32.7854 24.4387 32.8241 24.2839 32.8551C24.1292 32.886 23.9744 32.9092 23.8197 32.9247C23.6649 32.9402 23.5334 32.9479 23.4251 32.9479C22.8835 32.9479 22.4347 32.8396 22.0788 32.6229C21.7228 32.4063 21.4907 32.0272 21.3824 31.4855C20.8562 31.9962 20.2063 32.3676 19.4326 32.5997C18.6743 32.8319 17.9392 32.9479 17.2274 32.9479C16.6858 32.9479 16.1673 32.8705 15.6721 32.7158C15.177 32.5765 14.7359 32.3676 14.349 32.0891C13.9776 31.795 13.6759 31.4314 13.4438 30.9981C13.2271 30.5493 13.1188 30.0309 13.1188 29.4429C13.1188 28.7001 13.2503 28.0965 13.5134 27.6323C13.7919 27.168 14.1479 26.8044 14.5812 26.5413C15.0299 26.2782 15.5251 26.0925 16.0668 25.9842C16.6239 25.8604 17.181 25.7676 17.738 25.7057C18.2178 25.6128 18.6743 25.5509 19.1076 25.52C19.5409 25.4735 19.92 25.4039 20.245 25.3111C20.5854 25.2182 20.8485 25.0789 21.0342 24.8932C21.2354 24.6921 21.336 24.398 21.336 24.0112C21.336 23.6707 21.2509 23.3922 21.0806 23.1755C20.9259 22.9589 20.7247 22.7964 20.4771 22.6881C20.245 22.5643 19.9819 22.4869 19.6879 22.4559C19.3939 22.4095 19.1153 22.3863 18.8522 22.3863C18.1094 22.3863 17.4982 22.541 17.0185 22.8505C16.5387 23.16 16.2679 23.6398 16.206 24.2897H13.5598C13.6062 23.516 13.7919 22.8738 14.1169 22.3631C14.4419 21.8524 14.852 21.4423 15.3472 21.1328C15.8578 20.8233 16.4304 20.6067 17.0649 20.4829C17.6994 20.3591 18.3493 20.2972 19.0147 20.2972C19.6028 20.2972 20.1831 20.3591 20.7557 20.4829C21.3282 20.6067 21.8389 20.8079 22.2877 21.0864C22.7519 21.365 23.1233 21.7286 23.4019 22.1774C23.6804 22.6107 23.8197 23.1446 23.8197 23.779V29.9535ZM21.1735 26.6109C20.7711 26.874 20.2759 27.0365 19.6879 27.0984C19.0998 27.1448 18.5118 27.2222 17.9237 27.3305C17.6452 27.377 17.3744 27.4466 17.1113 27.5394C16.8482 27.6168 16.6161 27.7329 16.4149 27.8876C16.2138 28.0269 16.0513 28.2203 15.9275 28.4679C15.8192 28.7001 15.765 28.9863 15.765 29.3268C15.765 29.6208 15.8501 29.8684 16.0203 30.0696C16.1906 30.2708 16.3917 30.4332 16.6239 30.557C16.8715 30.6654 17.1345 30.7427 17.4131 30.7892C17.7071 30.8356 17.9702 30.8588 18.2023 30.8588C18.4963 30.8588 18.8136 30.8201 19.154 30.7427C19.4945 30.6654 19.8117 30.5338 20.1057 30.3481C20.4152 30.1624 20.6705 29.9303 20.8717 29.6518C21.0729 29.3577 21.1735 29.0018 21.1735 28.584V26.6109ZM27.6651 16.0493H30.3113V22.1774H30.3578C30.5435 21.8834 30.7679 21.6203 31.0309 21.3882C31.294 21.156 31.5803 20.9626 31.8898 20.8079C32.2148 20.6376 32.5475 20.5138 32.8879 20.4365C33.2438 20.3436 33.592 20.2972 33.9325 20.2972C34.8764 20.2972 35.6966 20.4674 36.393 20.8079C37.1048 21.1328 37.6929 21.5893 38.1571 22.1774C38.6214 22.75 38.9696 23.4231 39.2017 24.1969C39.4338 24.9706 39.5499 25.7985 39.5499 26.6806C39.5499 27.4853 39.4415 28.2668 39.2249 29.025C39.0237 29.7833 38.7065 30.4565 38.2732 31.0445C37.8554 31.6171 37.3215 32.0813 36.6715 32.4372C36.0216 32.7777 35.2556 32.9479 34.3735 32.9479C33.9712 32.9479 33.5611 32.917 33.1433 32.8551C32.7409 32.8086 32.354 32.7081 31.9826 32.5533C31.6112 32.3986 31.2708 32.1974 30.9613 31.9498C30.6673 31.7022 30.4197 31.3772 30.2185 30.9749H30.1721V32.6229H27.6651V16.0493ZM36.9037 26.6342C36.9037 26.0925 36.834 25.5664 36.6947 25.0557C36.5555 24.545 36.3466 24.0963 36.068 23.7094C35.7895 23.3071 35.4413 22.9898 35.0235 22.7577C34.6056 22.5101 34.1259 22.3863 33.5843 22.3863C32.4701 22.3863 31.6267 22.7732 31.0541 23.5469C30.497 24.3207 30.2185 25.3497 30.2185 26.6342C30.2185 27.2377 30.2881 27.8025 30.4274 28.3287C30.5822 28.8393 30.8065 29.2804 31.1006 29.6518C31.3946 30.0232 31.7428 30.3172 32.1451 30.5338C32.5629 30.7505 33.0427 30.8588 33.5843 30.8588C34.1878 30.8588 34.6985 30.735 35.1163 30.4874C35.5341 30.2398 35.8746 29.9226 36.1377 29.5357C36.4162 29.1334 36.6096 28.6846 36.718 28.1894C36.8418 27.6787 36.9037 27.1603 36.9037 26.6342ZM42.784 16.0493H45.4302V32.6229H42.784V16.0493ZM57.4823 25.5664C57.4514 25.1486 57.3585 24.7462 57.2038 24.3593C57.0645 23.9725 56.8633 23.6398 56.6002 23.3612C56.3527 23.0672 56.0432 22.8351 55.6718 22.6648C55.3158 22.4791 54.9135 22.3863 54.4647 22.3863C54.0005 22.3863 53.5749 22.4714 53.188 22.6416C52.8166 22.7964 52.4917 23.0208 52.2131 23.3148C51.95 23.5933 51.7334 23.9261 51.5632 24.3129C51.4084 24.6998 51.3233 25.1176 51.3078 25.5664H57.4823ZM51.3078 27.3073C51.3078 27.7716 51.3697 28.2203 51.4935 28.6536C51.6328 29.0869 51.834 29.4661 52.0971 29.791C52.3601 30.116 52.6928 30.3791 53.0952 30.5803C53.4975 30.766 53.9773 30.8588 54.5343 30.8588C55.3081 30.8588 55.9271 30.6963 56.3913 30.3713C56.8711 30.0309 57.227 29.528 57.4591 28.8625H59.966C59.8268 29.5125 59.5869 30.0928 59.2465 30.6035C58.906 31.1141 58.4959 31.5474 58.0162 31.9034C57.5365 32.2438 56.9949 32.4991 56.3913 32.6694C55.8033 32.8551 55.1843 32.9479 54.5343 32.9479C53.5904 32.9479 52.7547 32.7932 52.0274 32.4837C51.3001 32.1742 50.6811 31.7409 50.1704 31.1838C49.6752 30.6267 49.2961 29.9613 49.033 29.1875C48.7854 28.4138 48.6616 27.5627 48.6616 26.6342C48.6616 25.783 48.7932 24.9783 49.0562 24.2201C49.3348 23.4463 49.7217 22.7732 50.2169 22.2006C50.7275 21.6126 51.3388 21.1483 52.0506 20.8079C52.7625 20.4674 53.5672 20.2972 54.4647 20.2972C55.4087 20.2972 56.2521 20.4984 56.9949 20.9007C57.7531 21.2876 58.3799 21.806 58.8751 22.4559C59.3703 23.1059 59.7262 23.8564 59.9428 24.7075C60.175 25.5432 60.2369 26.4098 60.1285 27.3073H51.3078Z" fill="white"/>
<path d="M106.675 16.0493H113.987C115.163 16.0493 116.123 16.2195 116.865 16.56C117.608 16.9004 118.181 17.326 118.583 17.8367C118.986 18.3473 119.256 18.9044 119.396 19.508C119.55 20.1115 119.628 20.6686 119.628 21.1793C119.628 21.6899 119.55 22.247 119.396 22.8505C119.256 23.4386 118.986 23.9879 118.583 24.4986C118.181 25.0093 117.608 25.4349 116.865 25.7753C116.123 26.1003 115.163 26.2628 113.987 26.2628H109.577V32.6229H106.675V16.0493ZM109.577 23.8951H113.825C114.15 23.8951 114.482 23.8487 114.823 23.7558C115.163 23.663 115.473 23.516 115.751 23.3148C116.045 23.0981 116.277 22.8196 116.448 22.4791C116.633 22.1232 116.726 21.6822 116.726 21.156C116.726 20.6144 116.649 20.1656 116.494 19.8097C116.339 19.4538 116.13 19.1753 115.867 18.9741C115.604 18.7574 115.303 18.6104 114.962 18.533C114.622 18.4557 114.258 18.417 113.871 18.417H109.577V23.8951ZM128.216 32.9479C127.257 32.9479 126.398 32.7932 125.64 32.4837C124.897 32.1587 124.262 31.7177 123.736 31.1606C123.225 30.6035 122.831 29.9381 122.552 29.1643C122.289 28.3906 122.158 27.5394 122.158 26.6109C122.158 25.6979 122.289 24.8545 122.552 24.0808C122.831 23.3071 123.225 22.6416 123.736 22.0845C124.262 21.5274 124.897 21.0941 125.64 20.7846C126.398 20.4597 127.257 20.2972 128.216 20.2972C129.176 20.2972 130.027 20.4597 130.77 20.7846C131.528 21.0941 132.162 21.5274 132.673 22.0845C133.199 22.6416 133.594 23.3071 133.857 24.0808C134.135 24.8545 134.275 25.6979 134.275 26.6109C134.275 27.5394 134.135 28.3906 133.857 29.1643C133.594 29.9381 133.199 30.6035 132.673 31.1606C132.162 31.7177 131.528 32.1587 130.77 32.4837C130.027 32.7932 129.176 32.9479 128.216 32.9479ZM128.216 30.8588C128.804 30.8588 129.315 30.735 129.748 30.4874C130.181 30.2398 130.537 29.9148 130.816 29.5125C131.094 29.1101 131.296 28.6614 131.419 28.1662C131.559 27.6555 131.628 27.1371 131.628 26.6109C131.628 26.1003 131.559 25.5896 131.419 25.0789C131.296 24.5683 131.094 24.1195 130.816 23.7326C130.537 23.3303 130.181 23.0053 129.748 22.7577C129.315 22.5101 128.804 22.3863 128.216 22.3863C127.628 22.3863 127.117 22.5101 126.684 22.7577C126.251 23.0053 125.895 23.3303 125.616 23.7326C125.338 24.1195 125.129 24.5683 124.99 25.0789C124.866 25.5896 124.804 26.1003 124.804 26.6109C124.804 27.1371 124.866 27.6555 124.99 28.1662C125.129 28.6614 125.338 29.1101 125.616 29.5125C125.895 29.9148 126.251 30.2398 126.684 30.4874C127.117 30.735 127.628 30.8588 128.216 30.8588ZM137.403 20.6222H139.887V22.9434H139.933C140.011 22.6184 140.158 22.3012 140.374 21.9917C140.606 21.6822 140.877 21.4036 141.187 21.156C141.512 20.893 141.868 20.6841 142.254 20.5293C142.641 20.3746 143.036 20.2972 143.438 20.2972C143.748 20.2972 143.957 20.3049 144.065 20.3204C144.189 20.3359 144.313 20.3513 144.436 20.3668V22.9202C144.251 22.8892 144.057 22.866 143.856 22.8505C143.67 22.8196 143.485 22.8041 143.299 22.8041C142.85 22.8041 142.425 22.897 142.022 23.0827C141.635 23.2529 141.295 23.516 141.001 23.8719C140.707 24.2123 140.475 24.6379 140.305 25.1486C140.134 25.6592 140.049 26.2473 140.049 26.9127V32.6229H137.403V20.6222ZM145.285 20.6222H147.281V17.0242H149.928V20.6222H152.318V22.5952H149.928V29.0018C149.928 29.2804 149.935 29.5202 149.951 29.7214C149.982 29.9226 150.036 30.0928 150.113 30.2321C150.206 30.3713 150.338 30.4797 150.508 30.557C150.678 30.6189 150.91 30.6499 151.204 30.6499C151.39 30.6499 151.576 30.6499 151.761 30.6499C151.947 30.6344 152.133 30.6035 152.318 30.557V32.5997C152.024 32.6307 151.738 32.6616 151.46 32.6926C151.181 32.7235 150.895 32.739 150.601 32.739C149.904 32.739 149.339 32.6771 148.906 32.5533C148.488 32.414 148.156 32.2206 147.908 31.973C147.676 31.7099 147.513 31.385 147.421 30.9981C147.343 30.6112 147.297 30.1702 147.281 29.675V22.5952H145.285V20.6222Z" fill="white"/>
<path d="M99.1534 4.33984H66.7859C65.7176 4.33984 64.8516 5.20589 64.8516 6.2742V38.6417C64.8516 39.71 65.7176 40.576 66.7859 40.576H99.1534C100.222 40.576 101.088 39.71 101.088 38.6417V6.2742C101.088 5.20589 100.222 4.33984 99.1534 4.33984Z" fill="#1B9358"/>
<path d="M74.6329 10.534H78.6042L82.9221 17.2506L87.4265 10.534H91.1579L84.8678 19.7027L91.611 29.5645H87.5597L82.8155 22.2881L77.9912 29.5645H74.1798L80.9231 19.7027L74.6329 10.534Z" fill="white"/>
<path fill-rule="evenodd" clip-rule="evenodd" d="M87.4575 34.0897L82.4251 37.7355L77.3927 34.0897H80.3038V29.1641H84.5464V34.0892L87.4575 34.0897Z" fill="white"/>
</g>
<defs>
<clipPath id="clip0_346_23">
<rect width="153" height="45" fill="white"/>
</clipPath>
</defs>
</svg>
