<svg width="141" height="59" viewBox="0 0 141 59" fill="none" xmlns="http://www.w3.org/2000/svg">
<path d="M0.211479 20.5698H15.4908V23.4248H9.49012V39.4443H6.18576V23.4248H0.211479V20.5698ZM26.0691 36.4043C26.0691 36.7744 26.1132 37.0388 26.2013 37.1974C26.307 37.356 26.5009 37.4353 26.7829 37.4353C26.871 37.4353 26.9767 37.4353 27.1001 37.4353C27.2235 37.4353 27.3644 37.4177 27.5231 37.3824V39.4708C27.4173 39.506 27.2763 39.5413 27.1001 39.5765C26.9415 39.6294 26.7741 39.6734 26.5978 39.7087C26.4216 39.7439 26.2454 39.7704 26.0691 39.788C25.8929 39.8056 25.7431 39.8144 25.6197 39.8144C25.0029 39.8144 24.4919 39.6911 24.0865 39.4443C23.6812 39.1976 23.4168 38.7658 23.2935 38.149C22.6943 38.7306 21.9541 39.1536 21.0729 39.4179C20.2094 39.6822 19.3723 39.8144 18.5616 39.8144C17.9448 39.8144 17.3544 39.7263 16.7905 39.5501C16.2265 39.3915 15.7243 39.1536 15.2837 38.8363C14.8607 38.5015 14.5171 38.0873 14.2527 37.5939C14.006 37.0828 13.8827 36.4924 13.8827 35.8228C13.8827 34.9768 14.0324 34.2895 14.332 33.7608C14.6493 33.2321 15.0546 32.818 15.548 32.5184C16.0591 32.2188 16.6231 32.0073 17.2399 31.884C17.8743 31.743 18.5088 31.6372 19.1432 31.5667C19.6895 31.461 20.2094 31.3905 20.7029 31.3553C21.1963 31.3024 21.6281 31.2231 21.9982 31.1173C22.3859 31.0116 22.6855 30.853 22.8969 30.6415C23.126 30.4124 23.2406 30.0776 23.2406 29.637C23.2406 29.2493 23.1437 28.9321 22.9498 28.6853C22.7736 28.4386 22.5445 28.2536 22.2625 28.1302C21.9982 27.9892 21.6986 27.9011 21.3637 27.8659C21.0289 27.813 20.7117 27.7866 20.4121 27.7866C19.5662 27.7866 18.87 27.9628 18.3237 28.3152C17.7774 28.6677 17.469 29.214 17.3985 29.9542H14.3849C14.4378 29.073 14.6493 28.3417 15.0194 27.7601C15.3894 27.1785 15.8565 26.7115 16.4204 26.3591C17.002 26.0066 17.654 25.7599 18.3766 25.6189C19.0991 25.4779 19.8393 25.4074 20.5971 25.4074C21.2668 25.4074 21.9277 25.4779 22.5797 25.6189C23.2318 25.7599 23.8134 25.989 24.3244 26.3062C24.8531 26.6234 25.2761 27.0376 25.5933 27.5486C25.9105 28.0421 26.0691 28.6501 26.0691 29.3726V36.4043ZM23.0556 32.5977C22.5974 32.8973 22.0334 33.0823 21.3637 33.1528C20.694 33.2057 20.0244 33.2938 19.3547 33.4172C19.0375 33.4701 18.729 33.5494 18.4295 33.6551C18.1299 33.7432 17.8655 33.8754 17.6364 34.0516C17.4073 34.2102 17.2223 34.4305 17.0813 34.7125C16.9579 34.9768 16.8962 35.3029 16.8962 35.6906C16.8962 36.0254 16.9932 36.3074 17.187 36.5365C17.3809 36.7656 17.61 36.9506 17.8743 37.0916C18.1563 37.215 18.4559 37.3031 18.7731 37.356C19.1079 37.4088 19.4075 37.4353 19.6719 37.4353C20.0067 37.4353 20.368 37.3912 20.7557 37.3031C21.1434 37.215 21.5047 37.0652 21.8396 36.8537C22.192 36.6422 22.4828 36.3779 22.7119 36.0607C22.941 35.7258 23.0556 35.3205 23.0556 34.8447V32.5977ZM29.391 20.5698H32.4046V27.5486H32.4575C32.669 27.2138 32.9245 26.9142 33.2241 26.6499C33.5237 26.3855 33.8497 26.1652 34.2022 25.989C34.5723 25.7951 34.9512 25.6541 35.3389 25.566C35.7442 25.4603 36.1408 25.4074 36.5285 25.4074C37.6035 25.4074 38.5375 25.6013 39.3306 25.989C40.1412 26.3591 40.8109 26.879 41.3396 27.5486C41.8683 28.2007 42.2648 28.9673 42.5292 29.8485C42.7935 30.7296 42.9257 31.6725 42.9257 32.677C42.9257 33.5934 42.8023 34.4834 42.5556 35.3469C42.3265 36.2105 41.9652 36.9771 41.4718 37.6468C40.996 38.2988 40.388 38.8275 39.6478 39.2329C38.9076 39.6206 38.0353 39.8144 37.0307 39.8144C36.5725 39.8144 36.1055 39.7792 35.6297 39.7087C35.1715 39.6558 34.7309 39.5413 34.3079 39.365C33.885 39.1888 33.4973 38.9597 33.1448 38.6777C32.81 38.3958 32.528 38.0257 32.2989 37.5675H32.246V39.4443H29.391V20.5698ZM39.9121 32.6241C39.9121 32.0073 39.8328 31.4081 39.6742 30.8266C39.5156 30.245 39.2777 29.7339 38.9605 29.2933C38.6433 28.8351 38.2467 28.4739 37.7709 28.2095C37.2951 27.9275 36.7488 27.7866 36.1319 27.7866C34.8631 27.7866 33.9026 28.2271 33.2505 29.1083C32.6161 29.9895 32.2989 31.1614 32.2989 32.6241C32.2989 33.3114 32.3782 33.9547 32.5368 34.5539C32.713 35.1354 32.9686 35.6377 33.3034 36.0607C33.6383 36.4836 34.0348 36.8185 34.493 37.0652C34.9688 37.3119 35.5151 37.4353 36.1319 37.4353C36.8192 37.4353 37.4008 37.2943 37.8766 37.0123C38.3525 36.7304 38.7402 36.3691 39.0398 35.9285C39.357 35.4703 39.5773 34.9592 39.7007 34.3953C39.8416 33.8137 39.9121 33.2233 39.9121 32.6241Z" fill="white"/>
<path d="M90.5637 20.5698H98.8907C100.23 20.5698 101.323 20.7637 102.169 21.1514C103.015 21.5391 103.667 22.0237 104.125 22.6053C104.583 23.1869 104.891 23.8213 105.05 24.5086C105.226 25.1959 105.314 25.8304 105.314 26.4119C105.314 26.9935 105.226 27.6279 105.05 28.3152C104.891 28.9849 104.583 29.6106 104.125 30.1921C103.667 30.7737 103.015 31.2583 102.169 31.646C101.323 32.0161 100.23 32.2012 98.8907 32.2012H93.8681V39.4443H90.5637V20.5698ZM93.8681 29.5048H98.7057C99.0758 29.5048 99.4547 29.4519 99.8424 29.3462C100.23 29.2405 100.583 29.073 100.9 28.8439C101.235 28.5972 101.499 28.28 101.693 27.8923C101.904 27.487 102.01 26.9847 102.01 26.3855C102.01 25.7687 101.922 25.2576 101.746 24.8523C101.569 24.4469 101.332 24.1297 101.032 23.9006C100.732 23.6539 100.389 23.4865 100.001 23.3984C99.6133 23.3102 99.1991 23.2662 98.7586 23.2662H93.8681V29.5048ZM114.038 39.8144C112.945 39.8144 111.967 39.6382 111.103 39.2857C110.258 38.9156 109.535 38.4134 108.936 37.7789C108.354 37.1445 107.905 36.3867 107.588 35.5055C107.288 34.6244 107.138 33.6551 107.138 32.5977C107.138 31.5579 107.288 30.5975 107.588 29.7163C107.905 28.8351 108.354 28.0773 108.936 27.4429C109.535 26.8085 110.258 26.315 111.103 25.9625C111.967 25.5925 112.945 25.4074 114.038 25.4074C115.13 25.4074 116.1 25.5925 116.946 25.9625C117.809 26.315 118.532 26.8085 119.113 27.4429C119.712 28.0773 120.162 28.8351 120.461 29.7163C120.779 30.5975 120.937 31.5579 120.937 32.5977C120.937 33.6551 120.779 34.6244 120.461 35.5055C120.162 36.3867 119.712 37.1445 119.113 37.7789C118.532 38.4134 117.809 38.9156 116.946 39.2857C116.1 39.6382 115.13 39.8144 114.038 39.8144ZM114.038 37.4353C114.707 37.4353 115.289 37.2943 115.782 37.0123C116.276 36.7304 116.681 36.3603 116.998 35.9021C117.316 35.4439 117.545 34.9328 117.686 34.3688C117.844 33.7873 117.924 33.1969 117.924 32.5977C117.924 32.0161 117.844 31.4346 117.686 30.853C117.545 30.2714 117.316 29.7604 116.998 29.3198C116.681 28.8616 116.276 28.4915 115.782 28.2095C115.289 27.9275 114.707 27.7866 114.038 27.7866C113.368 27.7866 112.786 27.9275 112.293 28.2095C111.8 28.4915 111.394 28.8616 111.077 29.3198C110.76 29.7604 110.522 30.2714 110.363 30.853C110.222 31.4346 110.152 32.0161 110.152 32.5977C110.152 33.1969 110.222 33.7873 110.363 34.3688C110.522 34.9328 110.76 35.4439 111.077 35.9021C111.394 36.3603 111.8 36.7304 112.293 37.0123C112.786 37.2943 113.368 37.4353 114.038 37.4353ZM123.443 25.7775H126.271V28.421H126.324C126.412 28.0509 126.579 27.6896 126.826 27.3372C127.091 26.9847 127.399 26.6675 127.751 26.3855C128.122 26.0859 128.527 25.848 128.967 25.6718C129.408 25.4955 129.857 25.4074 130.316 25.4074C130.668 25.4074 130.906 25.4162 131.029 25.4338C131.17 25.4515 131.311 25.4691 131.452 25.4867V28.3946C131.241 28.3593 131.021 28.3329 130.791 28.3152C130.58 28.28 130.368 28.2624 130.157 28.2624C129.646 28.2624 129.161 28.3681 128.703 28.5796C128.262 28.7735 127.875 29.073 127.54 29.4784C127.205 29.8661 126.941 30.3507 126.747 30.9323C126.553 31.5139 126.456 32.1836 126.456 32.9414V39.4443H123.443V25.7775ZM131.361 25.7775H133.635V21.6801H136.648V25.7775H139.371V28.0245H136.648V35.3205C136.648 35.6377 136.657 35.9109 136.675 36.14C136.71 36.3691 136.772 36.5629 136.86 36.7215C136.966 36.8802 137.115 37.0035 137.309 37.0916C137.503 37.1621 137.767 37.1974 138.102 37.1974C138.314 37.1974 138.525 37.1974 138.737 37.1974C138.948 37.1797 139.16 37.1445 139.371 37.0916V39.4179C139.036 39.4531 138.71 39.4884 138.393 39.5236C138.076 39.5589 137.75 39.5765 137.415 39.5765C136.622 39.5765 135.979 39.506 135.485 39.365C135.009 39.2064 134.631 38.9861 134.349 38.7042C134.084 38.4046 133.899 38.0345 133.793 37.5939C133.705 37.1533 133.652 36.651 133.635 36.0871V28.0245H131.361V25.7775Z" fill="white"/>
<rect x="45.499" y="9.15967" width="41.2668" height="41.2668" rx="2.20291" fill="#6CBB4C"/>
<path d="M51.3763 13.4315H58.4677L66.1778 25.425L74.2211 13.4315H80.8841L69.6521 29.8036L81.6932 47.4131H74.459L65.9874 34.4201L57.373 47.4131H50.5672L62.6083 29.8036L51.3763 13.4315Z" fill="#02150E"/>
</svg>
