<svg width="141" height="48" viewBox="0 0 141 48" fill="none" xmlns="http://www.w3.org/2000/svg">
<path d="M0.197175 16.4749H14.443V19.1368H8.84821V34.0728H5.76736V19.1368H0.197175V16.4749ZM25.2917 31.2384C25.2917 31.5834 25.3328 31.8299 25.4149 31.9778C25.5135 32.1257 25.6943 32.1996 25.9572 32.1996C26.0393 32.1996 26.1379 32.1996 26.2529 32.1996C26.3679 32.1996 26.4994 32.1832 26.6473 32.1503V34.0974C26.5487 34.1303 26.4172 34.1631 26.2529 34.196C26.105 34.2453 25.9489 34.2864 25.7846 34.3192C25.6203 34.3521 25.456 34.3767 25.2917 34.3932C25.1274 34.4096 24.9877 34.4178 24.8727 34.4178C24.2976 34.4178 23.8211 34.3028 23.4432 34.0728C23.0653 33.8427 22.8188 33.4402 22.7038 32.8651C22.1451 33.4073 21.455 33.8016 20.6334 34.0481C19.8283 34.2946 19.0478 34.4178 18.292 34.4178C17.7169 34.4178 17.1665 34.3357 16.6407 34.1713C16.1149 34.0235 15.6466 33.8016 15.2358 33.5059C14.8414 33.1937 14.521 32.8076 14.2746 32.3475C14.0445 31.871 13.9295 31.3205 13.9295 30.6961C13.9295 29.9074 14.0692 29.2666 14.3485 28.7737C14.6443 28.2807 15.0222 27.8946 15.4823 27.6153C15.9588 27.336 16.4846 27.1388 17.0596 27.0238C17.6512 26.8923 18.2427 26.7937 18.8342 26.728C19.3436 26.6294 19.8283 26.5637 20.2884 26.5308C20.7485 26.4815 21.151 26.4076 21.4961 26.309C21.8576 26.2104 22.1369 26.0625 22.3341 25.8654C22.5477 25.6518 22.6545 25.3396 22.6545 24.9288C22.6545 24.5673 22.5641 24.2715 22.3834 24.0415C22.2191 23.8115 22.0054 23.6389 21.7425 23.5239C21.4961 23.3925 21.2167 23.3103 20.9046 23.2774C20.5924 23.2281 20.2966 23.2035 20.0173 23.2035C19.2286 23.2035 18.5795 23.3678 18.0702 23.6964C17.5608 24.0251 17.2733 24.5344 17.2075 25.2245H14.3978C14.4471 24.403 14.6443 23.7211 14.9893 23.1789C15.3344 22.6366 15.7698 22.2012 16.2956 21.8726C16.8378 21.5439 17.4458 21.3139 18.1195 21.1825C18.7931 21.051 19.4833 20.9853 20.1898 20.9853C20.8142 20.9853 21.4304 21.051 22.0383 21.1825C22.6463 21.3139 23.1885 21.5275 23.665 21.8233C24.1579 22.119 24.5523 22.5052 24.848 22.9817C25.1438 23.4418 25.2917 24.0086 25.2917 24.6823V31.2384ZM22.482 27.6892C22.0547 27.9686 21.5289 28.1411 20.9046 28.2068C20.2802 28.2561 19.6558 28.3383 19.0314 28.4533C18.7356 28.5026 18.4481 28.5765 18.1688 28.6751C17.8894 28.7573 17.643 28.8805 17.4294 29.0448C17.2157 29.1927 17.0432 29.3981 16.9118 29.661C16.7967 29.9074 16.7392 30.2114 16.7392 30.5729C16.7392 30.8851 16.8296 31.148 17.0104 31.3616C17.1911 31.5752 17.4047 31.7477 17.6512 31.8792C17.9141 31.9942 18.1934 32.0764 18.4892 32.1257C18.8014 32.1749 19.0807 32.1996 19.3272 32.1996C19.6393 32.1996 19.9762 32.1585 20.3377 32.0764C20.6992 31.9942 21.036 31.8545 21.3482 31.6574C21.6768 31.4602 21.9479 31.2137 22.1615 30.918C22.3751 30.6058 22.482 30.2278 22.482 29.7842V27.6892ZM29.3748 16.4749H32.1845V22.9817H32.2338C32.431 22.6695 32.6692 22.3902 32.9486 22.1437C33.2279 21.8972 33.5319 21.6918 33.8605 21.5275C34.2056 21.3468 34.5588 21.2153 34.9203 21.1332C35.2982 21.0346 35.6679 20.9853 36.0294 20.9853C37.0317 20.9853 37.9026 21.166 38.642 21.5275C39.3978 21.8726 40.0222 22.3573 40.5151 22.9817C41.0081 23.5896 41.3778 24.3044 41.6243 25.126C41.8707 25.9475 41.994 26.8266 41.994 27.7632C41.994 28.6176 41.8789 29.4474 41.6489 30.2525C41.4353 31.0576 41.0985 31.7724 40.6384 32.3968C40.1947 33.0047 39.6279 33.4977 38.9378 33.8756C38.2476 34.2371 37.4343 34.4178 36.4977 34.4178C36.0705 34.4178 35.6351 34.3849 35.1914 34.3192C34.7642 34.2699 34.3534 34.1631 33.9591 33.9988C33.5647 33.8345 33.2033 33.6209 32.8746 33.358C32.5624 33.0951 32.2995 32.75 32.0859 32.3228H32.0366V34.0728H29.3748V16.4749ZM39.1842 27.7139C39.1842 27.1388 39.1103 26.5801 38.9624 26.0379C38.8145 25.4957 38.5927 25.0192 38.2969 24.6084C38.0012 24.1812 37.6315 23.8443 37.1878 23.5979C36.7442 23.335 36.2348 23.2035 35.6597 23.2035C34.4767 23.2035 33.5812 23.6143 32.9732 24.4358C32.3817 25.2574 32.0859 26.3501 32.0859 27.7139C32.0859 28.3547 32.1599 28.9544 32.3078 29.5131C32.4721 30.0553 32.7103 30.5236 33.0225 30.918C33.3347 31.3123 33.7044 31.6245 34.1316 31.8545C34.5753 32.0846 35.0846 32.1996 35.6597 32.1996C36.3005 32.1996 36.8428 32.0681 37.2864 31.8052C37.7301 31.5423 38.0915 31.2055 38.3709 30.7947C38.6666 30.3675 38.872 29.891 38.987 29.3652C39.1185 28.823 39.1842 28.2725 39.1842 27.7139Z" fill="white"/>
<path d="M91.3976 16.4749H99.1613C100.41 16.4749 101.429 16.6557 102.218 17.0171C103.006 17.3786 103.614 17.8305 104.041 18.3727C104.469 18.915 104.756 19.5065 104.904 20.1473C105.068 20.7881 105.151 21.3796 105.151 21.9219C105.151 22.4641 105.068 23.0556 104.904 23.6964C104.756 24.3208 104.469 24.9041 104.041 25.4464C103.614 25.9886 103.006 26.4405 102.218 26.8019C101.429 27.147 100.41 27.3195 99.1613 27.3195H94.4784V34.0728H91.3976V16.4749ZM94.4784 24.8055H98.9888C99.3339 24.8055 99.6871 24.7563 100.049 24.6577C100.41 24.5591 100.739 24.403 101.034 24.1894C101.347 23.9593 101.593 23.6636 101.774 23.3021C101.971 22.9242 102.07 22.4559 102.07 21.8972C102.07 21.3221 101.987 20.8456 101.823 20.4677C101.659 20.0898 101.437 19.794 101.158 19.5804C100.878 19.3504 100.558 19.1943 100.196 19.1121C99.835 19.03 99.4489 18.9889 99.0381 18.9889H94.4784V24.8055ZM114.27 34.4178C113.251 34.4178 112.339 34.2535 111.534 33.9249C110.745 33.5798 110.071 33.1115 109.513 32.52C108.971 31.9285 108.552 31.2219 108.256 30.4004C107.976 29.5788 107.837 28.6751 107.837 27.6892C107.837 26.7198 107.976 25.8243 108.256 25.0027C108.552 24.1812 108.971 23.4746 109.513 22.8831C110.071 22.2916 110.745 21.8315 111.534 21.5029C112.339 21.1578 113.251 20.9853 114.27 20.9853C115.288 20.9853 116.192 21.1578 116.981 21.5029C117.786 21.8315 118.46 22.2916 119.002 22.8831C119.56 23.4746 119.979 24.1812 120.259 25.0027C120.555 25.8243 120.702 26.7198 120.702 27.6892C120.702 28.6751 120.555 29.5788 120.259 30.4004C119.979 31.2219 119.56 31.9285 119.002 32.52C118.46 33.1115 117.786 33.5798 116.981 33.9249C116.192 34.2535 115.288 34.4178 114.27 34.4178ZM114.27 32.1996C114.894 32.1996 115.436 32.0681 115.896 31.8052C116.356 31.5423 116.734 31.1973 117.03 30.7701C117.326 30.3429 117.539 29.8664 117.671 29.3406C117.819 28.7983 117.893 28.2479 117.893 27.6892C117.893 27.147 117.819 26.6048 117.671 26.0625C117.539 25.5203 117.326 25.0438 117.03 24.633C116.734 24.2058 116.356 23.8608 115.896 23.5979C115.436 23.335 114.894 23.2035 114.27 23.2035C113.645 23.2035 113.103 23.335 112.643 23.5979C112.183 23.8608 111.805 24.2058 111.509 24.633C111.213 25.0438 110.992 25.5203 110.844 26.0625C110.712 26.6048 110.647 27.147 110.647 27.6892C110.647 28.2479 110.712 28.7983 110.844 29.3406C110.992 29.8664 111.213 30.3429 111.509 30.7701C111.805 31.1973 112.183 31.5423 112.643 31.8052C113.103 32.0681 113.645 32.1996 114.27 32.1996ZM124.024 21.3303H126.661V23.795H126.711C126.793 23.45 126.949 23.1131 127.179 22.7845C127.425 22.4559 127.713 22.1601 128.042 21.8972C128.387 21.6179 128.765 21.3961 129.175 21.2318C129.586 21.0674 130.005 20.9853 130.432 20.9853C130.761 20.9853 130.983 20.9935 131.098 21.0099C131.229 21.0264 131.361 21.0428 131.492 21.0592V23.7704C131.295 23.7375 131.09 23.7129 130.876 23.6964C130.679 23.6636 130.482 23.6471 130.284 23.6471C129.808 23.6471 129.356 23.7457 128.929 23.9429C128.518 24.1237 128.157 24.403 127.844 24.7809C127.532 25.1424 127.286 25.5942 127.105 26.1365C126.924 26.6787 126.834 27.3031 126.834 28.0096V34.0728H124.024V21.3303ZM132.393 21.3303H134.513V17.5101H137.323V21.3303H139.861V23.4253H137.323V30.2278C137.323 30.5236 137.331 30.7783 137.347 30.9919C137.38 31.2055 137.438 31.3862 137.52 31.5341C137.618 31.682 137.758 31.797 137.939 31.8792C138.12 31.9449 138.366 31.9778 138.678 31.9778C138.875 31.9778 139.073 31.9778 139.27 31.9778C139.467 31.9613 139.664 31.9285 139.861 31.8792V34.0481C139.549 34.081 139.245 34.1138 138.949 34.1467C138.654 34.1796 138.35 34.196 138.037 34.196C137.298 34.196 136.698 34.1303 136.238 33.9988C135.795 33.8509 135.441 33.6455 135.178 33.3826C134.932 33.1033 134.759 32.7583 134.661 32.3475C134.579 31.9367 134.529 31.4684 134.513 30.9426V23.4253H132.393V21.3303Z" fill="white"/>
<rect x="46.9893" y="4.46338" width="38.4755" height="38.4755" rx="2.0539" fill="#1B9358"/>
<path d="M54.4869 11.0934H60.188L66.3866 20.7356L72.853 11.0934H78.2098L69.1798 24.2558L78.8603 38.4131H73.0444L66.2336 27.9673L59.308 38.4131H53.8364L63.5169 24.2558L54.4869 11.0934Z" fill="white"/>
</svg>
